{
	"patcher" : 	{
		"fileversion" : 1,
		"appversion" : 		{
			"major" : 7,
			"minor" : 3,
			"revision" : 5,
			"architecture" : "x64",
			"modernui" : 1
		}
,
		"rect" : [ 43.0, 79.0, 1198.0, 687.0 ],
		"bglocked" : 0,
		"openinpresentation" : 1,
		"default_fontsize" : 12.0,
		"default_fontface" : 0,
		"default_fontname" : "Arial",
		"gridonopen" : 1,
		"gridsize" : [ 15.0, 15.0 ],
		"gridsnaponopen" : 1,
		"objectsnaponopen" : 1,
		"statusbarvisible" : 2,
		"toolbarvisible" : 1,
		"lefttoolbarpinned" : 0,
		"toptoolbarpinned" : 0,
		"righttoolbarpinned" : 0,
		"bottomtoolbarpinned" : 0,
		"toolbars_unpinned_last_save" : 0,
		"tallnewobj" : 0,
		"boxanimatetime" : 200,
		"enablehscroll" : 1,
		"enablevscroll" : 1,
		"devicewidth" : 0.0,
		"description" : "",
		"digest" : "",
		"tags" : "",
		"style" : "",
		"subpatcher_template" : "",
		"boxes" : [ 			{
				"box" : 				{
					"id" : "obj-73",
					"linecount" : 4,
					"maxclass" : "message",
					"numinlets" : 2,
					"numoutlets" : 1,
					"outlettype" : [ "" ],
					"patching_rect" : [ 242.0, 236.0, 81.0, 62.0 ],
					"style" : "",
					"text" : "set #1_SpinDriftCloudbuff "
				}

			}
, 			{
				"box" : 				{
					"annotation" : "cloudson/off",
					"comment" : "cloudson/off",
					"hint" : "cloudson/off",
					"id" : "obj-78",
					"index" : 1,
					"maxclass" : "inlet",
					"numinlets" : 0,
					"numoutlets" : 1,
					"outlettype" : [ "" ],
					"patching_rect" : [ 49.0, 26.0, 30.0, 30.0 ],
					"style" : "",
					"varname" : "cloudson/off"
				}

			}
, 			{
				"box" : 				{
					"annotation" : "outgainlevel(dBFS)",
					"comment" : "outgainlevel(dBFS)",
					"hint" : "outgainlevel(dBFS)",
					"id" : "obj-77",
					"index" : 4,
					"maxclass" : "inlet",
					"numinlets" : 0,
					"numoutlets" : 1,
					"outlettype" : [ "" ],
					"patching_rect" : [ 154.5, 26.0, 30.0, 30.0 ],
					"style" : "",
					"varname" : "outgainlevel(dBFS)"
				}

			}
, 			{
				"box" : 				{
					"fontname" : "Arial",
					"fontsize" : 8.0,
					"id" : "obj-70",
					"maxclass" : "comment",
					"numinlets" : 1,
					"numoutlets" : 0,
					"patching_rect" : [ 582.5, 537.0, 37.0, 15.0 ],
					"presentation" : 1,
					"presentation_rect" : [ 659.75, 542.0, 37.0, 15.0 ],
					"style" : "",
					"text" : "Dropflie",
					"textcolor" : [ 0.952941, 0.564706, 0.098039, 0.38 ]
				}

			}
, 			{
				"box" : 				{
					"id" : "obj-69",
					"maxclass" : "newobj",
					"numinlets" : 0,
					"numoutlets" : 1,
					"outlettype" : [ "" ],
					"patching_rect" : [ 15.0, 0.0, 116.0, 22.0 ],
					"style" : "",
					"text" : "r importsendtocloud"
				}

			}
, 			{
				"box" : 				{
					"id" : "obj-67",
					"maxclass" : "newobj",
					"numinlets" : 1,
					"numoutlets" : 0,
					"patching_rect" : [ 943.0, 251.0, 118.0, 22.0 ],
					"style" : "",
					"text" : "s importsendtocloud"
				}

			}
, 			{
				"box" : 				{
					"id" : "obj-63",
					"maxclass" : "newobj",
					"numinlets" : 0,
					"numoutlets" : 1,
					"outlettype" : [ "" ],
					"patching_rect" : [ 258.0, 43.0, 95.0, 22.0 ],
					"style" : "",
					"text" : "r flielengthcloud"
				}

			}
, 			{
				"box" : 				{
					"id" : "obj-59",
					"maxclass" : "newobj",
					"numinlets" : 1,
					"numoutlets" : 0,
					"patching_rect" : [ 1048.0, 388.0, 97.0, 22.0 ],
					"style" : "",
					"text" : "s flielengthcloud"
				}

			}
, 			{
				"box" : 				{
					"border" : 4.0,
					"bordercolor" : [ 0.952941, 0.564706, 0.098039, 0.33 ],
					"id" : "obj-87",
					"maxclass" : "dropfile",
					"numinlets" : 1,
					"numoutlets" : 2,
					"outlettype" : [ "", "" ],
					"patching_rect" : [ 991.0, 26.0, 122.0, 102.0 ],
					"presentation" : 1,
					"presentation_rect" : [ 600.25, 520.0, 156.0, 59.0 ]
				}

			}
, 			{
				"box" : 				{
					"fontname" : "Arial",
					"fontsize" : 11.595187,
					"id" : "obj-128",
					"maxclass" : "newobj",
					"numinlets" : 1,
					"numoutlets" : 2,
					"outlettype" : [ "", "int" ],
					"patching_rect" : [ 1080.0, 164.0, 64.0, 21.0 ],
					"style" : "",
					"text" : "strippath"
				}

			}
, 			{
				"box" : 				{
					"fontname" : "Osaka",
					"fontsize" : 12.0,
					"id" : "obj-83",
					"maxclass" : "newobj",
					"numinlets" : 1,
					"numoutlets" : 1,
					"outlettype" : [ "" ],
					"patching_rect" : [ 943.0, 204.0, 99.0, 23.0 ],
					"style" : "",
					"text" : "prepend import"
				}

			}
, 			{
				"box" : 				{
					"fontname" : "Osaka",
					"fontsize" : 12.0,
					"id" : "obj-84",
					"linecount" : 2,
					"maxclass" : "message",
					"numinlets" : 2,
					"numoutlets" : 1,
					"outlettype" : [ "" ],
					"patching_rect" : [ 1050.0, 202.0, 93.0, 38.0 ],
					"style" : "",
					"text" : "gettimescale, getduration"
				}

			}
, 			{
				"box" : 				{
					"fontname" : "Osaka",
					"fontsize" : 12.0,
					"id" : "obj-85",
					"maxclass" : "newobj",
					"numinlets" : 1,
					"numoutlets" : 1,
					"outlettype" : [ "" ],
					"patching_rect" : [ 1150.0, 203.0, 86.0, 23.0 ],
					"style" : "",
					"text" : "prepend read"
				}

			}
, 			{
				"box" : 				{
					"fontname" : "Osaka",
					"fontsize" : 12.0,
					"id" : "obj-86",
					"maxclass" : "newobj",
					"numinlets" : 1,
					"numoutlets" : 3,
					"outlettype" : [ "", "bang", "" ],
					"patching_rect" : [ 943.0, 163.0, 132.0, 23.0 ],
					"style" : "",
					"text" : "t s b s"
				}

			}
, 			{
				"box" : 				{
					"fontname" : "Osaka",
					"fontsize" : 12.0,
					"id" : "obj-88",
					"maxclass" : "newobj",
					"numinlets" : 2,
					"numoutlets" : 1,
					"outlettype" : [ "float" ],
					"patching_rect" : [ 1048.0, 352.0, 56.0, 23.0 ],
					"style" : "",
					"text" : "* 1000."
				}

			}
, 			{
				"box" : 				{
					"fontname" : "Osaka",
					"fontsize" : 12.0,
					"id" : "obj-90",
					"maxclass" : "newobj",
					"numinlets" : 2,
					"numoutlets" : 1,
					"outlettype" : [ "float" ],
					"patching_rect" : [ 1048.0, 324.0, 84.5, 23.0 ],
					"style" : "",
					"text" : "/ 1."
				}

			}
, 			{
				"box" : 				{
					"fontname" : "Osaka",
					"fontsize" : 12.0,
					"id" : "obj-93",
					"maxclass" : "newobj",
					"numinlets" : 3,
					"numoutlets" : 3,
					"outlettype" : [ "", "", "" ],
					"patching_rect" : [ 1048.0, 291.0, 151.0, 23.0 ],
					"style" : "",
					"text" : "route duration timescale"
				}

			}
, 			{
				"box" : 				{
					"fontname" : "Osaka",
					"fontsize" : 12.0,
					"id" : "obj-94",
					"maxclass" : "newobj",
					"numinlets" : 1,
					"numoutlets" : 2,
					"outlettype" : [ "jit_matrix", "" ],
					"patching_rect" : [ 1050.0, 254.0, 156.0, 23.0 ],
					"style" : "",
					"text" : "jit.qt.movie @autostart 0"
				}

			}
, 			{
				"box" : 				{
					"id" : "obj-74",
					"maxclass" : "message",
					"numinlets" : 2,
					"numoutlets" : 1,
					"outlettype" : [ "" ],
					"patching_rect" : [ 267.0, 67.0, 65.0, 22.0 ],
					"style" : "",
					"text" : "setsize $1"
				}

			}
, 			{
				"box" : 				{
					"bgcolor" : [ 0.0, 0.0, 0.0, 1.0 ],
					"elementcolor" : [ 0.2, 0.2, 0.2, 1.0 ],
					"floatoutput" : 1,
					"id" : "obj-68",
					"ignoreclick" : 1,
					"knobcolor" : [ 0.952941, 0.564706, 0.098039, 1.0 ],
					"maxclass" : "slider",
					"numinlets" : 1,
					"numoutlets" : 1,
					"outlettype" : [ "" ],
					"parameter_enable" : 0,
					"patching_rect" : [ 228.5, 597.0, 165.0, 22.0 ],
					"presentation" : 1,
					"presentation_rect" : [ 595.75, 458.0, 165.0, 22.0 ],
					"size" : 100.0,
					"style" : ""
				}

			}
, 			{
				"box" : 				{
					"id" : "obj-60",
					"maxclass" : "comment",
					"numinlets" : 1,
					"numoutlets" : 0,
					"patching_rect" : [ 236.0, 570.0, 150.0, 20.0 ],
					"presentation" : 1,
					"presentation_rect" : [ 648.75, 433.0, 65.0, 20.0 ],
					"style" : "",
					"text" : "CPU: 0%",
					"textcolor" : [ 0.952941, 0.564706, 0.098039, 1.0 ]
				}

			}
, 			{
				"box" : 				{
					"fontname" : "Arial",
					"fontsize" : 9.0,
					"id" : "obj-387",
					"maxclass" : "newobj",
					"numinlets" : 0,
					"numoutlets" : 2,
					"outlettype" : [ "", "" ],
					"patcher" : 					{
						"fileversion" : 1,
						"appversion" : 						{
							"major" : 7,
							"minor" : 3,
							"revision" : 5,
							"architecture" : "x64",
							"modernui" : 1
						}
,
						"rect" : [ 38.0, 79.0, 640.0, 480.0 ],
						"bglocked" : 0,
						"openinpresentation" : 0,
						"default_fontsize" : 12.0,
						"default_fontface" : 0,
						"default_fontname" : "Arial",
						"gridonopen" : 1,
						"gridsize" : [ 15.0, 15.0 ],
						"gridsnaponopen" : 1,
						"objectsnaponopen" : 1,
						"statusbarvisible" : 2,
						"toolbarvisible" : 1,
						"lefttoolbarpinned" : 0,
						"toptoolbarpinned" : 0,
						"righttoolbarpinned" : 0,
						"bottomtoolbarpinned" : 0,
						"toolbars_unpinned_last_save" : 0,
						"tallnewobj" : 0,
						"boxanimatetime" : 200,
						"enablehscroll" : 1,
						"enablevscroll" : 1,
						"devicewidth" : 0.0,
						"description" : "",
						"digest" : "",
						"tags" : "",
						"style" : "",
						"subpatcher_template" : "",
						"boxes" : [ 							{
								"box" : 								{
									"fontname" : "Arial",
									"fontsize" : 10.0,
									"id" : "obj-56",
									"maxclass" : "newobj",
									"numinlets" : 1,
									"numoutlets" : 1,
									"outlettype" : [ "" ],
									"patcher" : 									{
										"fileversion" : 1,
										"appversion" : 										{
											"major" : 7,
											"minor" : 3,
											"revision" : 5,
											"architecture" : "x64",
											"modernui" : 1
										}
,
										"rect" : [ 38.0, 79.0, 640.0, 480.0 ],
										"bglocked" : 0,
										"openinpresentation" : 0,
										"default_fontsize" : 12.0,
										"default_fontface" : 0,
										"default_fontname" : "Arial",
										"gridonopen" : 1,
										"gridsize" : [ 15.0, 15.0 ],
										"gridsnaponopen" : 1,
										"objectsnaponopen" : 1,
										"statusbarvisible" : 2,
										"toolbarvisible" : 1,
										"lefttoolbarpinned" : 0,
										"toptoolbarpinned" : 0,
										"righttoolbarpinned" : 0,
										"bottomtoolbarpinned" : 0,
										"toolbars_unpinned_last_save" : 0,
										"tallnewobj" : 0,
										"boxanimatetime" : 200,
										"enablehscroll" : 1,
										"enablevscroll" : 1,
										"devicewidth" : 0.0,
										"description" : "",
										"digest" : "",
										"tags" : "",
										"style" : "",
										"subpatcher_template" : "",
										"boxes" : [ 											{
												"box" : 												{
													"fontname" : "Arial",
													"fontsize" : 12.0,
													"id" : "obj-4",
													"maxclass" : "newobj",
													"numinlets" : 2,
													"numoutlets" : 1,
													"outlettype" : [ "" ],
													"patching_rect" : [ 67.0, 372.0, 41.0, 22.0 ],
													"style" : "",
													"text" : "round"
												}

											}
, 											{
												"box" : 												{
													"fontname" : "Arial",
													"fontsize" : 12.0,
													"format" : 6,
													"id" : "obj-3",
													"maxclass" : "flonum",
													"numinlets" : 1,
													"numoutlets" : 2,
													"outlettype" : [ "", "bang" ],
													"parameter_enable" : 0,
													"patching_rect" : [ 60.0, 207.0, 50.0, 22.0 ],
													"style" : ""
												}

											}
, 											{
												"box" : 												{
													"fontname" : "Arial",
													"fontsize" : 12.0,
													"id" : "obj-15",
													"maxclass" : "newobj",
													"numinlets" : 2,
													"numoutlets" : 1,
													"outlettype" : [ "float" ],
													"patching_rect" : [ 120.0, 291.0, 39.0, 22.0 ],
													"style" : "",
													"text" : "* 0.9"
												}

											}
, 											{
												"box" : 												{
													"fontname" : "Arial",
													"fontsize" : 12.0,
													"id" : "obj-16",
													"maxclass" : "newobj",
													"numinlets" : 2,
													"numoutlets" : 1,
													"outlettype" : [ "float" ],
													"patching_rect" : [ 65.0, 322.0, 65.0, 22.0 ],
													"style" : "",
													"text" : "+ 0."
												}

											}
, 											{
												"box" : 												{
													"fontname" : "Arial",
													"fontsize" : 12.0,
													"id" : "obj-17",
													"maxclass" : "newobj",
													"numinlets" : 2,
													"numoutlets" : 1,
													"outlettype" : [ "float" ],
													"patching_rect" : [ 65.0, 292.0, 39.0, 22.0 ],
													"style" : "",
													"text" : "* 0.1"
												}

											}
, 											{
												"box" : 												{
													"comment" : "",
													"id" : "obj-26",
													"index" : 1,
													"maxclass" : "inlet",
													"numinlets" : 0,
													"numoutlets" : 1,
													"outlettype" : [ "" ],
													"patching_rect" : [ 59.0, 55.0, 25.0, 25.0 ],
													"style" : ""
												}

											}
, 											{
												"box" : 												{
													"comment" : "",
													"id" : "obj-28",
													"index" : 1,
													"maxclass" : "outlet",
													"numinlets" : 1,
													"numoutlets" : 0,
													"patching_rect" : [ 70.0, 414.5, 25.0, 25.0 ],
													"style" : ""
												}

											}
 ],
										"lines" : [ 											{
												"patchline" : 												{
													"destination" : [ "obj-16", 1 ],
													"source" : [ "obj-15", 0 ]
												}

											}
, 											{
												"patchline" : 												{
													"destination" : [ "obj-15", 0 ],
													"midpoints" : [ 74.5, 352.0, 168.0, 352.0, 168.0, 279.0, 129.5, 279.0 ],
													"order" : 0,
													"source" : [ "obj-16", 0 ]
												}

											}
, 											{
												"patchline" : 												{
													"destination" : [ "obj-4", 0 ],
													"order" : 1,
													"source" : [ "obj-16", 0 ]
												}

											}
, 											{
												"patchline" : 												{
													"destination" : [ "obj-16", 0 ],
													"source" : [ "obj-17", 0 ]
												}

											}
, 											{
												"patchline" : 												{
													"destination" : [ "obj-3", 0 ],
													"source" : [ "obj-26", 0 ]
												}

											}
, 											{
												"patchline" : 												{
													"destination" : [ "obj-17", 0 ],
													"source" : [ "obj-3", 0 ]
												}

											}
, 											{
												"patchline" : 												{
													"destination" : [ "obj-28", 0 ],
													"source" : [ "obj-4", 0 ]
												}

											}
 ]
									}
,
									"patching_rect" : [ 270.0, 131.0, 52.0, 20.0 ],
									"saved_object_attributes" : 									{
										"description" : "",
										"digest" : "",
										"globalpatchername" : "",
										"style" : "",
										"tags" : ""
									}
,
									"style" : "",
									"text" : "p smooth"
								}

							}
, 							{
								"box" : 								{
									"fontname" : "Arial",
									"fontsize" : 10.0,
									"id" : "obj-55",
									"maxclass" : "newobj",
									"numinlets" : 2,
									"numoutlets" : 1,
									"outlettype" : [ "bang" ],
									"patching_rect" : [ 270.0, 87.0, 103.0, 20.0 ],
									"style" : "",
									"text" : "metro 250 @active 1"
								}

							}
, 							{
								"box" : 								{
									"fontname" : "Arial",
									"fontsize" : 10.0,
									"id" : "obj-53",
									"maxclass" : "newobj",
									"numinlets" : 2,
									"numoutlets" : 2,
									"outlettype" : [ "", "int" ],
									"patching_rect" : [ 270.0, 109.0, 67.0, 20.0 ],
									"style" : "",
									"text" : "adstatus cpu"
								}

							}
, 							{
								"box" : 								{
									"fontname" : "Arial",
									"fontsize" : 12.0,
									"id" : "obj-13",
									"maxclass" : "newobj",
									"numinlets" : 1,
									"numoutlets" : 1,
									"outlettype" : [ "" ],
									"patching_rect" : [ 70.0, 159.0, 74.0, 22.0 ],
									"style" : "",
									"text" : "prepend set"
								}

							}
, 							{
								"box" : 								{
									"comment" : "",
									"id" : "obj-12",
									"index" : 2,
									"maxclass" : "outlet",
									"numinlets" : 1,
									"numoutlets" : 0,
									"patching_rect" : [ 70.0, 187.0, 25.0, 25.0 ],
									"style" : ""
								}

							}
, 							{
								"box" : 								{
									"comment" : "",
									"id" : "obj-11",
									"index" : 1,
									"maxclass" : "outlet",
									"numinlets" : 1,
									"numoutlets" : 0,
									"patching_rect" : [ 32.0, 187.0, 25.0, 25.0 ],
									"style" : ""
								}

							}
, 							{
								"box" : 								{
									"fontname" : "Arial",
									"fontsize" : 12.0,
									"id" : "obj-9",
									"maxclass" : "number",
									"numinlets" : 1,
									"numoutlets" : 2,
									"outlettype" : [ "", "bang" ],
									"parameter_enable" : 0,
									"patching_rect" : [ 84.0, 78.0, 50.0, 22.0 ],
									"style" : ""
								}

							}
, 							{
								"box" : 								{
									"fontname" : "Arial",
									"fontsize" : 12.0,
									"id" : "obj-5",
									"maxclass" : "message",
									"numinlets" : 2,
									"numoutlets" : 1,
									"outlettype" : [ "" ],
									"patching_rect" : [ 70.0, 132.0, 67.0, 22.0 ],
									"style" : "",
									"text" : "CPU: $1%"
								}

							}
 ],
						"lines" : [ 							{
								"patchline" : 								{
									"destination" : [ "obj-12", 0 ],
									"source" : [ "obj-13", 0 ]
								}

							}
, 							{
								"patchline" : 								{
									"destination" : [ "obj-13", 0 ],
									"source" : [ "obj-5", 0 ]
								}

							}
, 							{
								"patchline" : 								{
									"destination" : [ "obj-56", 0 ],
									"source" : [ "obj-53", 0 ]
								}

							}
, 							{
								"patchline" : 								{
									"destination" : [ "obj-53", 0 ],
									"source" : [ "obj-55", 0 ]
								}

							}
, 							{
								"patchline" : 								{
									"destination" : [ "obj-9", 0 ],
									"midpoints" : [ 279.5, 161.0, 186.5, 161.0, 186.5, 67.0, 93.5, 67.0 ],
									"source" : [ "obj-56", 0 ]
								}

							}
, 							{
								"patchline" : 								{
									"destination" : [ "obj-11", 0 ],
									"midpoints" : [ 93.5, 129.0, 41.5, 129.0 ],
									"order" : 1,
									"source" : [ "obj-9", 0 ]
								}

							}
, 							{
								"patchline" : 								{
									"destination" : [ "obj-5", 0 ],
									"order" : 0,
									"source" : [ "obj-9", 0 ]
								}

							}
 ]
					}
,
					"patching_rect" : [ 216.0, 521.5, 33.0, 19.0 ],
					"saved_object_attributes" : 					{
						"description" : "",
						"digest" : "",
						"globalpatchername" : "",
						"style" : "",
						"tags" : ""
					}
,
					"style" : "",
					"text" : "p cpu"
				}

			}
, 			{
				"box" : 				{
					"id" : "obj-66",
					"maxclass" : "newobj",
					"numinlets" : 2,
					"numoutlets" : 3,
					"outlettype" : [ "bang", "bang", "int" ],
					"patching_rect" : [ 138.0, 299.25, 40.0, 22.0 ],
					"style" : "",
					"text" : "uzi 6"
				}

			}
, 			{
				"box" : 				{
					"id" : "obj-65",
					"maxclass" : "newobj",
					"numinlets" : 2,
					"numoutlets" : 1,
					"outlettype" : [ "bang" ],
					"patching_rect" : [ 138.0, 323.25, 63.0, 22.0 ],
					"style" : "",
					"text" : "delay 100"
				}

			}
, 			{
				"box" : 				{
					"id" : "obj-64",
					"maxclass" : "newobj",
					"numinlets" : 2,
					"numoutlets" : 1,
					"outlettype" : [ "int" ],
					"patching_rect" : [ 132.75, 365.5, 29.5, 22.0 ],
					"style" : "",
					"text" : "int"
				}

			}
, 			{
				"box" : 				{
					"id" : "obj-53",
					"maxclass" : "newobj",
					"numinlets" : 1,
					"numoutlets" : 1,
					"outlettype" : [ "" ],
					"patching_rect" : [ 258.0, 148.0, 72.0, 22.0 ],
					"style" : "",
					"text" : "loadmess 2"
				}

			}
, 			{
				"box" : 				{
					"fontname" : "Broadway Copyist Text Ext",
					"fontsize" : 24.0,
					"id" : "obj-56",
					"maxclass" : "comment",
					"numinlets" : 1,
					"numoutlets" : 0,
					"patching_rect" : [ 407.357117, -15.5, 154.0, 40.0 ],
					"presentation" : 1,
					"presentation_rect" : [ 228.0, 3.0, 140.0, 40.0 ],
					"style" : "",
					"text" : "CLOUD MACHINE",
					"textcolor" : [ 0.952941, 0.564706, 0.098039, 1.0 ],
					"textjustification" : 1
				}

			}
, 			{
				"box" : 				{
					"fontname" : "Arial",
					"fontsize" : 12.0,
					"id" : "obj-1",
					"maxclass" : "newobj",
					"numinlets" : 1,
					"numoutlets" : 0,
					"patching_rect" : [ 699.5, 722.0, 96.0, 22.0 ],
					"style" : "",
					"text" : "s tSpindriftcloud"
				}

			}
, 			{
				"box" : 				{
					"fontname" : "Arial",
					"fontsize" : 12.0,
					"id" : "obj-16",
					"maxclass" : "message",
					"numinlets" : 2,
					"numoutlets" : 1,
					"outlettype" : [ "" ],
					"patching_rect" : [ 752.900024, 676.0, 59.0, 22.0 ],
					"style" : "",
					"text" : "selout $1"
				}

			}
, 			{
				"box" : 				{
					"fontname" : "Arial",
					"fontsize" : 12.0,
					"id" : "obj-51",
					"maxclass" : "message",
					"numinlets" : 2,
					"numoutlets" : 1,
					"outlettype" : [ "" ],
					"patching_rect" : [ 671.099976, 676.0, 52.0, 22.0 ],
					"style" : "",
					"text" : "selin $1"
				}

			}
, 			{
				"box" : 				{
					"allowdrag" : 0,
					"bgcolor" : [ 0.0, 0.0, 0.0, 1.0 ],
					"buffername" : "CLORK.BRADT_SpinDriftCloudbuff",
					"grid" : 500.0,
					"gridcolor" : [ 1.0, 1.0, 1.0, 1.0 ],
					"id" : "obj-54",
					"maxclass" : "waveform~",
					"numinlets" : 5,
					"numoutlets" : 6,
					"outlettype" : [ "float", "float", "float", "float", "list", "" ],
					"patching_rect" : [ 509.5, 522.0, 423.0, 147.0 ],
					"presentation" : 1,
					"presentation_rect" : [ 30.5, 348.5, 559.0, 189.0 ],
					"selectioncolor" : [ 0.4, 1.0, 1.0, 0.31 ],
					"setmode" : 1,
					"style" : "chiba",
					"waveformcolor" : [ 0.952941, 0.564706, 0.098039, 1.0 ]
				}

			}
, 			{
				"box" : 				{
					"annotation" : "numberofclouds",
					"comment" : "numberofclouds",
					"hint" : "numberofclouds",
					"id" : "obj-50",
					"index" : 2,
					"maxclass" : "inlet",
					"numinlets" : 0,
					"numoutlets" : 1,
					"outlettype" : [ "" ],
					"patching_rect" : [ 84.166664, 26.0, 30.0, 30.0 ],
					"style" : "",
					"varname" : "numberofclouds"
				}

			}
, 			{
				"box" : 				{
					"id" : "obj-49",
					"maxclass" : "message",
					"numinlets" : 2,
					"numoutlets" : 1,
					"outlettype" : [ "" ],
					"patching_rect" : [ 178.5, 26.0, 50.0, 22.0 ],
					"style" : "",
					"text" : "replace"
				}

			}
, 			{
				"box" : 				{
					"bgcolor" : [ 0.0, 0.0, 0.0, 1.0 ],
					"bgoncolor" : [ 0.0, 0.0, 0.0, 1.0 ],
					"fontsize" : 16.0,
					"id" : "obj-48",
					"maxclass" : "textbutton",
					"numinlets" : 1,
					"numoutlets" : 3,
					"outlettype" : [ "", "", "int" ],
					"parameter_enable" : 0,
					"patching_rect" : [ 178.5, 8.0, 178.0, 16.5 ],
					"presentation" : 1,
					"presentation_rect" : [ 590.0, 14.75, 178.0, 16.5 ],
					"style" : "",
					"text" : "Open Finder",
					"textcolor" : [ 1.0, 1.0, 1.0, 1.0 ],
					"texton" : "CLOUDS ON",
					"textoncolor" : [ 1.0, 1.0, 1.0, 1.0 ],
					"usebgoncolor" : 1
				}

			}
, 			{
				"box" : 				{
					"annotation" : "filein",
					"comment" : "filein",
					"hint" : "filein",
					"id" : "obj-43",
					"index" : 3,
					"maxclass" : "inlet",
					"numinlets" : 0,
					"numoutlets" : 1,
					"outlettype" : [ "" ],
					"patching_rect" : [ 119.333336, 26.0, 30.0, 30.0 ],
					"style" : "",
					"varname" : "filein"
				}

			}
, 			{
				"box" : 				{
					"fontname" : "Arial",
					"fontsize" : 16.0,
					"id" : "obj-42",
					"maxclass" : "comment",
					"numinlets" : 1,
					"numoutlets" : 0,
					"patching_rect" : [ 84.0, 179.0, 137.0, 24.0 ],
					"presentation" : 1,
					"presentation_rect" : [ 610.5, 110.0, 137.0, 24.0 ],
					"style" : "",
					"text" : "Number of Clouds",
					"textcolor" : [ 0.952941, 0.564706, 0.098039, 1.0 ]
				}

			}
, 			{
				"box" : 				{
					"annotation" : "grainpitch(-12-12)",
					"comment" : "grainpitch(-12-12)",
					"hint" : "grainpitch(-12-12)",
					"id" : "obj-41",
					"index" : 18,
					"maxclass" : "inlet",
					"numinlets" : 0,
					"numoutlets" : 1,
					"outlettype" : [ "" ],
					"patching_rect" : [ 879.785706, 26.0, 30.0, 30.0 ],
					"style" : "",
					"varname" : "grainpitch(-12-12)"
				}

			}
, 			{
				"box" : 				{
					"annotation" : "readheadjitter(0.-1000)",
					"comment" : "readheadjitter(0.-1000)",
					"hint" : "readheadjitter(0.-1000)",
					"id" : "obj-32",
					"index" : 17,
					"maxclass" : "inlet",
					"numinlets" : 0,
					"numoutlets" : 1,
					"outlettype" : [ "" ],
					"patching_rect" : [ 841.071411, 26.0, 30.0, 30.0 ],
					"style" : "",
					"varname" : "readheadjitter(0-1000)"
				}

			}
, 			{
				"box" : 				{
					"annotation" : "readheadspeed(0.001-2.)",
					"comment" : "readheadspeed(0.001-2.)",
					"hint" : "readheadspeed(0.001-2.)",
					"id" : "obj-33",
					"index" : 16,
					"maxclass" : "inlet",
					"numinlets" : 0,
					"numoutlets" : 1,
					"outlettype" : [ "" ],
					"patching_rect" : [ 802.357117, 26.0, 30.0, 30.0 ],
					"style" : "",
					"varname" : "readheadspeed(0001-2)"
				}

			}
, 			{
				"box" : 				{
					"annotation" : "grainspacingvar(0-500)",
					"comment" : "grainspacingvar(0-500)",
					"hint" : "grainspacingvar(0-500)",
					"id" : "obj-34",
					"index" : 15,
					"maxclass" : "inlet",
					"numinlets" : 0,
					"numoutlets" : 1,
					"outlettype" : [ "" ],
					"patching_rect" : [ 763.642883, 26.0, 30.0, 30.0 ],
					"style" : "",
					"varname" : "grainspacingvar(0-500)"
				}

			}
, 			{
				"box" : 				{
					"annotation" : "graindurvar(0.-500.)",
					"comment" : "graindurvar(0.-500.)",
					"hint" : "graindurvar(0.-500.)",
					"id" : "obj-35",
					"index" : 13,
					"maxclass" : "inlet",
					"numinlets" : 0,
					"numoutlets" : 1,
					"outlettype" : [ "" ],
					"patching_rect" : [ 686.214294, 26.0, 30.0, 30.0 ],
					"style" : "",
					"varname" : "graindurvar(0-500)[1]"
				}

			}
, 			{
				"box" : 				{
					"annotation" : "grainspacing(1.-1000.)",
					"comment" : "grainspacing(1.-1000.)",
					"hint" : "grainspacing(1.-1000.)",
					"id" : "obj-38",
					"index" : 14,
					"maxclass" : "inlet",
					"numinlets" : 0,
					"numoutlets" : 1,
					"outlettype" : [ "" ],
					"patching_rect" : [ 724.928589, 26.0, 30.0, 30.0 ],
					"style" : "",
					"varname" : "grainspacing(1-1000)"
				}

			}
, 			{
				"box" : 				{
					"annotation" : "graindur(1.-1000.)",
					"comment" : "graindur(1.-1000.)",
					"hint" : "graindur(1.-1000.)",
					"id" : "obj-39",
					"index" : 12,
					"maxclass" : "inlet",
					"numinlets" : 0,
					"numoutlets" : 1,
					"outlettype" : [ "" ],
					"patching_rect" : [ 647.5, 26.0, 30.0, 30.0 ],
					"style" : "",
					"varname" : "graindur(1-1000)"
				}

			}
, 			{
				"box" : 				{
					"annotation" : "grainpitchvar(0-12.)",
					"comment" : "grainpitchvar(0-12.)",
					"hint" : "grainpitchvar(0-12.)",
					"id" : "obj-40",
					"index" : 19,
					"maxclass" : "inlet",
					"numinlets" : 0,
					"numoutlets" : 1,
					"outlettype" : [ "" ],
					"patching_rect" : [ 918.5, 26.0, 30.0, 30.0 ],
					"style" : "",
					"varname" : "grainpitchvar(0-12)"
				}

			}
, 			{
				"box" : 				{
					"annotation" : "clumpexponent(0.-10.)",
					"comment" : "clumpexponent(0.-10.)",
					"hint" : "clumpexponent(0.-10.)",
					"id" : "obj-28",
					"index" : 11,
					"maxclass" : "inlet",
					"numinlets" : 0,
					"numoutlets" : 1,
					"outlettype" : [ "" ],
					"patching_rect" : [ 608.785706, 26.0, 30.0, 30.0 ],
					"style" : "",
					"varname" : "clumpexponent(0-10)"
				}

			}
, 			{
				"box" : 				{
					"annotation" : "clumpskew(0.-1.)",
					"comment" : "clumpskew(0.-1.)",
					"hint" : "clumpskew(0.-1.)",
					"id" : "obj-26",
					"index" : 10,
					"maxclass" : "inlet",
					"numinlets" : 0,
					"numoutlets" : 1,
					"outlettype" : [ "" ],
					"patching_rect" : [ 570.071411, 26.0, 30.0, 30.0 ],
					"style" : "",
					"varname" : "clumpskew(0-1)"
				}

			}
, 			{
				"box" : 				{
					"annotation" : "clumpfade(0.-1.)",
					"comment" : "clumpfade(0.-1.)",
					"hint" : "clumpfade(0.-1.)",
					"id" : "obj-24",
					"index" : 9,
					"maxclass" : "inlet",
					"numinlets" : 0,
					"numoutlets" : 1,
					"outlettype" : [ "" ],
					"patching_rect" : [ 531.357117, 26.0, 30.0, 30.0 ],
					"style" : "",
					"varname" : "clumpfade(0-1)"
				}

			}
, 			{
				"box" : 				{
					"annotation" : "clumpspacingvar(0.-2000.)",
					"comment" : "clumpspacingvar(0.-2000.)",
					"hint" : "clumpspacingvar(0.-2000.)",
					"id" : "obj-23",
					"index" : 8,
					"maxclass" : "inlet",
					"numinlets" : 0,
					"numoutlets" : 1,
					"outlettype" : [ "" ],
					"patching_rect" : [ 492.642853, 26.0, 30.0, 30.0 ],
					"style" : "",
					"varname" : "clumpspacingvar(0-2000)"
				}

			}
, 			{
				"box" : 				{
					"annotation" : "clumpspacing(100.-5000.)",
					"comment" : "clumpspacing(100.-5000.)",
					"hint" : "clumpspacing(100.-5000.)",
					"id" : "obj-22",
					"index" : 7,
					"maxclass" : "inlet",
					"numinlets" : 0,
					"numoutlets" : 1,
					"outlettype" : [ "" ],
					"patching_rect" : [ 453.928558, 26.0, 30.0, 30.0 ],
					"style" : "",
					"varname" : "clumpspacing(100-5000)"
				}

			}
, 			{
				"box" : 				{
					"annotation" : "clouddurvar(0.-2000.)",
					"comment" : "clouddurvar(0.-2000.)",
					"hint" : "clouddurvar(0.-2000.)",
					"id" : "obj-20",
					"index" : 6,
					"maxclass" : "inlet",
					"numinlets" : 0,
					"numoutlets" : 1,
					"outlettype" : [ "" ],
					"patching_rect" : [ 415.214294, 26.0, 30.0, 30.0 ],
					"style" : "",
					"varname" : "clouddurvar(0-2000)"
				}

			}
, 			{
				"box" : 				{
					"annotation" : "clouddur(1000.-5000.)",
					"comment" : "clouddur(1000.-5000.)",
					"hint" : "clouddur(1000.-5000.)",
					"id" : "obj-17",
					"index" : 5,
					"maxclass" : "inlet",
					"numinlets" : 0,
					"numoutlets" : 1,
					"outlettype" : [ "" ],
					"patching_rect" : [ 376.5, 26.0, 30.0, 30.0 ],
					"style" : "",
					"varname" : "clouddur(1000-5000)"
				}

			}
, 			{
				"box" : 				{
					"comment" : "",
					"id" : "obj-10",
					"index" : 1,
					"maxclass" : "outlet",
					"numinlets" : 1,
					"numoutlets" : 0,
					"patching_rect" : [ 45.0, 632.0, 30.0, 30.0 ],
					"style" : ""
				}

			}
, 			{
				"box" : 				{
					"comment" : "",
					"id" : "obj-6",
					"index" : 2,
					"maxclass" : "outlet",
					"numinlets" : 1,
					"numoutlets" : 0,
					"patching_rect" : [ 77.0, 632.0, 30.0, 30.0 ],
					"style" : ""
				}

			}
, 			{
				"box" : 				{
					"id" : "obj-21",
					"maxclass" : "button",
					"numinlets" : 1,
					"numoutlets" : 1,
					"outlettype" : [ "bang" ],
					"patching_rect" : [ 203.0, 273.25, 24.0, 24.0 ],
					"style" : ""
				}

			}
, 			{
				"box" : 				{
					"id" : "obj-19",
					"maxclass" : "newobj",
					"numinlets" : 2,
					"numoutlets" : 1,
					"outlettype" : [ "bang" ],
					"patching_rect" : [ 203.0, 323.25, 56.0, 22.0 ],
					"style" : "",
					"text" : "delay 40"
				}

			}
, 			{
				"box" : 				{
					"id" : "obj-18",
					"maxclass" : "newobj",
					"numinlets" : 2,
					"numoutlets" : 3,
					"outlettype" : [ "bang", "bang", "int" ],
					"patching_rect" : [ 203.0, 299.25, 40.0, 22.0 ],
					"style" : "",
					"text" : "uzi 2"
				}

			}
, 			{
				"box" : 				{
					"id" : "obj-11",
					"maxclass" : "message",
					"numinlets" : 2,
					"numoutlets" : 1,
					"outlettype" : [ "" ],
					"patching_rect" : [ 20.0, 88.25, 29.5, 22.0 ],
					"style" : "",
					"text" : "0"
				}

			}
, 			{
				"box" : 				{
					"id" : "obj-8",
					"maxclass" : "newobj",
					"numinlets" : 2,
					"numoutlets" : 1,
					"outlettype" : [ "bang" ],
					"patching_rect" : [ 158.0, 246.5, 69.0, 22.0 ],
					"style" : "",
					"text" : "delay 4000"
				}

			}
, 			{
				"box" : 				{
					"focusbordercolor" : [ 0.0, 0.0, 0.0, 1.0 ],
					"id" : "obj-15",
					"maxclass" : "live.gain~",
					"numinlets" : 2,
					"numoutlets" : 5,
					"outlettype" : [ "signal", "signal", "", "float", "list" ],
					"parameter_enable" : 1,
					"patching_rect" : [ 45.0, 472.0, 48.0, 136.0 ],
					"presentation" : 1,
					"presentation_rect" : [ 648.75, 161.0, 61.0, 153.0 ],
					"saved_attribute_attributes" : 					{
						"valueof" : 						{
							"parameter_longname" : "live.gain~[9]",
							"parameter_shortname" : "live.gain~",
							"parameter_type" : 0,
							"parameter_mmin" : -70.0,
							"parameter_mmax" : 6.0,
							"parameter_initial" : [ 0.0 ],
							"parameter_unitstyle" : 4
						}

					}
,
					"slidercolor" : [ 0.0, 0.0, 0.0, 1.0 ],
					"textcolor" : [ 0.952941, 0.564706, 0.098039, 1.0 ],
					"tribordercolor" : [ 1.0, 1.0, 1.0, 1.0 ],
					"tricolor" : [ 1.0, 1.0, 1.0, 1.0 ],
					"trioncolor" : [ 0.952941, 0.564706, 0.098039, 1.0 ],
					"varname" : "live.gain~"
				}

			}
, 			{
				"box" : 				{
					"bgfillcolor_angle" : 270.0,
					"bgfillcolor_autogradient" : 0,
					"bgfillcolor_color" : [ 0.290196, 0.309804, 0.301961, 1.0 ],
					"bgfillcolor_color1" : [ 0.0, 0.0, 0.0, 1.0 ],
					"bgfillcolor_color2" : [ 0.0, 0.0, 0.0, 1.0 ],
					"bgfillcolor_proportion" : 0.39,
					"bgfillcolor_type" : "gradient",
					"fontsize" : 16.0,
					"id" : "obj-14",
					"items" : [ 1, ",", 2, ",", 4, ",", 8, ",", 16, ",", 32, ",", 64, ",", 128, ",", 256, ",", 512, ",", 1024, ",", 2048, ",", 4096, ",", 5192 ],
					"maxclass" : "umenu",
					"numinlets" : 1,
					"numoutlets" : 3,
					"outlettype" : [ "int", "", "" ],
					"parameter_enable" : 0,
					"patching_rect" : [ 84.0, 208.0, 100.0, 26.0 ],
					"pattrmode" : 1,
					"presentation" : 1,
					"presentation_rect" : [ 611.0, 133.0, 136.5, 26.0 ],
					"style" : "",
					"textcolor" : [ 0.952941, 0.564706, 0.098039, 1.0 ]
				}

			}
, 			{
				"box" : 				{
					"id" : "obj-12",
					"maxclass" : "message",
					"numinlets" : 2,
					"numoutlets" : 1,
					"outlettype" : [ "" ],
					"patching_rect" : [ 73.0, 246.5, 61.0, 22.0 ],
					"style" : "",
					"text" : "voices $1"
				}

			}
, 			{
				"box" : 				{
					"id" : "obj-9",
					"linecount" : 2,
					"maxclass" : "newobj",
					"numinlets" : 1,
					"numoutlets" : 4,
					"outlettype" : [ "signal", "signal", "signal", "signal" ],
					"patching_rect" : [ 46.75, 403.5, 159.0, 35.0 ],
					"style" : "",
					"text" : "poly~ cloudcore 4 @args #1"
				}

			}
, 			{
				"box" : 				{
					"bgcolor" : [ 0.0, 0.0, 0.0, 1.0 ],
					"bgoncolor" : [ 0.0, 0.0, 0.0, 1.0 ],
					"fontsize" : 16.0,
					"id" : "obj-3",
					"maxclass" : "textbutton",
					"mode" : 1,
					"numinlets" : 1,
					"numoutlets" : 3,
					"outlettype" : [ "", "", "int" ],
					"parameter_enable" : 0,
					"patching_rect" : [ 49.0, 133.0, 178.0, 16.5 ],
					"presentation" : 1,
					"presentation_rect" : [ 590.0, 49.75, 178.0, 16.5 ],
					"style" : "",
					"text" : "CLOUDS OFF",
					"textcolor" : [ 1.0, 1.0, 1.0, 1.0 ],
					"texton" : "CLOUDS ON",
					"textoncolor" : [ 0.952941, 0.564706, 0.098039, 1.0 ],
					"usebgoncolor" : 1
				}

			}
, 			{
				"box" : 				{
					"id" : "obj-102",
					"maxclass" : "newobj",
					"numinlets" : 15,
					"numoutlets" : 0,
					"patcher" : 					{
						"fileversion" : 1,
						"appversion" : 						{
							"major" : 7,
							"minor" : 3,
							"revision" : 5,
							"architecture" : "x64",
							"modernui" : 1
						}
,
						"rect" : [ 190.0, 121.0, 1051.0, 645.0 ],
						"bglocked" : 0,
						"openinpresentation" : 0,
						"default_fontsize" : 12.0,
						"default_fontface" : 0,
						"default_fontname" : "Arial",
						"gridonopen" : 1,
						"gridsize" : [ 15.0, 15.0 ],
						"gridsnaponopen" : 1,
						"objectsnaponopen" : 1,
						"statusbarvisible" : 2,
						"toolbarvisible" : 1,
						"lefttoolbarpinned" : 0,
						"toptoolbarpinned" : 0,
						"righttoolbarpinned" : 0,
						"bottomtoolbarpinned" : 0,
						"toolbars_unpinned_last_save" : 0,
						"tallnewobj" : 0,
						"boxanimatetime" : 200,
						"enablehscroll" : 1,
						"enablevscroll" : 1,
						"devicewidth" : 0.0,
						"description" : "",
						"digest" : "",
						"tags" : "",
						"style" : "",
						"subpatcher_template" : "",
						"boxes" : [ 							{
								"box" : 								{
									"id" : "obj-4",
									"linecount" : 2,
									"maxclass" : "newobj",
									"numinlets" : 9,
									"numoutlets" : 9,
									"outlettype" : [ "", "", "", "", "", "", "", "", "" ],
									"patching_rect" : [ 310.5, 78.0, 706.0, 35.0 ],
									"style" : "",
									"text" : "k.ezOSC.AdditionalRouting clumpfadeexp clumdur pitchshift pitchshiftvar readheadspeed readheadjitter grainspace grainspacevar clumpfadeamount"
								}

							}
, 							{
								"box" : 								{
									"id" : "obj-2",
									"linecount" : 4,
									"maxclass" : "newobj",
									"numinlets" : 0,
									"numoutlets" : 7,
									"outlettype" : [ "", "", "", "", "", "", "" ],
									"patching_rect" : [ 22.5, 11.0, 307.0, 62.0 ],
									"style" : "",
									"text" : "k.ezOSC.Receive #1 k.MichealNorris.spindriftCloudMachine ctrl clumpdurvar graindur clumpspacingvar clumpspacing clumpfadeskew graindurvar"
								}

							}
, 							{
								"box" : 								{
									"fontname" : "Arial",
									"fontsize" : 12.0,
									"id" : "obj-42",
									"maxclass" : "message",
									"numinlets" : 2,
									"numoutlets" : 1,
									"outlettype" : [ "" ],
									"patching_rect" : [ 232.5, 306.5, 132.0, 22.0 ],
									"style" : "",
									"text" : "clumpfadeexponent $1"
								}

							}
, 							{
								"box" : 								{
									"fontname" : "Arial",
									"fontsize" : 12.0,
									"id" : "obj-39",
									"maxclass" : "message",
									"numinlets" : 2,
									"numoutlets" : 1,
									"outlettype" : [ "" ],
									"patching_rect" : [ 162.5, 266.0, 110.0, 22.0 ],
									"style" : "",
									"text" : "clumpfadeskew $1"
								}

							}
, 							{
								"box" : 								{
									"fontname" : "Arial",
									"fontsize" : 12.0,
									"id" : "obj-38",
									"maxclass" : "message",
									"numinlets" : 2,
									"numoutlets" : 1,
									"outlettype" : [ "" ],
									"patching_rect" : [ 512.5, 302.5, 123.0, 22.0 ],
									"style" : "",
									"text" : "clumpfadeamount $1"
								}

							}
, 							{
								"box" : 								{
									"fontname" : "Arial",
									"fontsize" : 12.0,
									"id" : "obj-35",
									"maxclass" : "message",
									"numinlets" : 2,
									"numoutlets" : 1,
									"outlettype" : [ "" ],
									"patching_rect" : [ 337.5, 266.0, 91.0, 22.0 ],
									"style" : "",
									"text" : "pitchshiftvar $1"
								}

							}
, 							{
								"box" : 								{
									"fontname" : "Arial",
									"fontsize" : 12.0,
									"id" : "obj-34",
									"maxclass" : "message",
									"numinlets" : 2,
									"numoutlets" : 1,
									"outlettype" : [ "" ],
									"patching_rect" : [ 302.5, 209.5, 75.0, 22.0 ],
									"style" : "",
									"text" : "pitchshift $1"
								}

							}
, 							{
								"box" : 								{
									"fontname" : "Arial",
									"fontsize" : 12.0,
									"id" : "obj-20",
									"maxclass" : "message",
									"numinlets" : 2,
									"numoutlets" : 1,
									"outlettype" : [ "" ],
									"patching_rect" : [ 442.5, 257.5, 101.0, 22.0 ],
									"style" : "",
									"text" : "readheadjitter $1"
								}

							}
, 							{
								"box" : 								{
									"fontname" : "Arial",
									"fontsize" : 12.0,
									"id" : "obj-15",
									"maxclass" : "message",
									"numinlets" : 2,
									"numoutlets" : 1,
									"outlettype" : [ "" ],
									"patching_rect" : [ 372.5, 233.5, 111.0, 22.0 ],
									"style" : "",
									"text" : "readheadspeed $1"
								}

							}
, 							{
								"box" : 								{
									"fontname" : "Arial",
									"fontsize" : 12.0,
									"id" : "obj-14",
									"maxclass" : "message",
									"numinlets" : 2,
									"numoutlets" : 1,
									"outlettype" : [ "" ],
									"patching_rect" : [ 497.5, 226.0, 112.0, 22.0 ],
									"style" : "",
									"text" : "grainspacingvar $1"
								}

							}
, 							{
								"box" : 								{
									"fontname" : "Arial",
									"fontsize" : 12.0,
									"id" : "obj-12",
									"maxclass" : "message",
									"numinlets" : 2,
									"numoutlets" : 1,
									"outlettype" : [ "" ],
									"patching_rect" : [ 407.5, 293.5, 95.0, 22.0 ],
									"style" : "",
									"text" : "grainspacing $1"
								}

							}
, 							{
								"box" : 								{
									"fontname" : "Arial",
									"fontsize" : 12.0,
									"id" : "obj-11",
									"maxclass" : "message",
									"numinlets" : 2,
									"numoutlets" : 1,
									"outlettype" : [ "" ],
									"patching_rect" : [ 197.5, 176.5, 114.0, 22.0 ],
									"style" : "",
									"text" : "graindurationvar $1"
								}

							}
, 							{
								"box" : 								{
									"fontname" : "Arial",
									"fontsize" : 12.0,
									"id" : "obj-6",
									"maxclass" : "message",
									"numinlets" : 2,
									"numoutlets" : 1,
									"outlettype" : [ "" ],
									"patching_rect" : [ 59.0, 274.0, 97.0, 22.0 ],
									"style" : "",
									"text" : "grainduration $1"
								}

							}
, 							{
								"box" : 								{
									"fontname" : "Arial",
									"fontsize" : 12.0,
									"id" : "obj-3",
									"maxclass" : "newobj",
									"numinlets" : 1,
									"numoutlets" : 0,
									"patching_rect" : [ 24.5, 420.0, 96.0, 22.0 ],
									"style" : "",
									"text" : "s tSpindriftcloud"
								}

							}
, 							{
								"box" : 								{
									"fontname" : "Arial",
									"fontsize" : 12.0,
									"id" : "obj-32",
									"maxclass" : "message",
									"numinlets" : 2,
									"numoutlets" : 1,
									"outlettype" : [ "" ],
									"patching_rect" : [ 92.5, 226.0, 117.0, 22.0 ],
									"style" : "",
									"text" : "clumpspacingvar $1"
								}

							}
, 							{
								"box" : 								{
									"fontname" : "Arial",
									"fontsize" : 12.0,
									"id" : "obj-33",
									"maxclass" : "message",
									"numinlets" : 2,
									"numoutlets" : 1,
									"outlettype" : [ "" ],
									"patching_rect" : [ 127.5, 306.5, 101.0, 22.0 ],
									"style" : "",
									"text" : "clumpspacing $1"
								}

							}
, 							{
								"box" : 								{
									"fontname" : "Arial",
									"fontsize" : 12.0,
									"id" : "obj-18",
									"maxclass" : "message",
									"numinlets" : 2,
									"numoutlets" : 1,
									"outlettype" : [ "" ],
									"patching_rect" : [ 22.5, 364.0, 119.0, 22.0 ],
									"style" : "",
									"text" : "clumpdurationvar $1"
								}

							}
, 							{
								"box" : 								{
									"fontname" : "Arial",
									"fontsize" : 12.0,
									"id" : "obj-9",
									"maxclass" : "message",
									"numinlets" : 2,
									"numoutlets" : 1,
									"outlettype" : [ "" ],
									"patching_rect" : [ 267.5, 242.0, 103.0, 22.0 ],
									"style" : "",
									"text" : "clumpduration $1"
								}

							}
, 							{
								"box" : 								{
									"comment" : "",
									"id" : "obj-87",
									"index" : 1,
									"maxclass" : "inlet",
									"numinlets" : 0,
									"numoutlets" : 1,
									"outlettype" : [ "" ],
									"patching_rect" : [ 22.5, 137.0, 30.0, 30.0 ],
									"style" : ""
								}

							}
, 							{
								"box" : 								{
									"comment" : "",
									"id" : "obj-88",
									"index" : 2,
									"maxclass" : "inlet",
									"numinlets" : 0,
									"numoutlets" : 1,
									"outlettype" : [ "" ],
									"patching_rect" : [ 57.5, 137.0, 30.0, 30.0 ],
									"style" : ""
								}

							}
, 							{
								"box" : 								{
									"comment" : "",
									"id" : "obj-89",
									"index" : 3,
									"maxclass" : "inlet",
									"numinlets" : 0,
									"numoutlets" : 1,
									"outlettype" : [ "" ],
									"patching_rect" : [ 92.5, 137.0, 30.0, 30.0 ],
									"style" : ""
								}

							}
, 							{
								"box" : 								{
									"comment" : "",
									"id" : "obj-90",
									"index" : 4,
									"maxclass" : "inlet",
									"numinlets" : 0,
									"numoutlets" : 1,
									"outlettype" : [ "" ],
									"patching_rect" : [ 127.5, 137.0, 30.0, 30.0 ],
									"style" : ""
								}

							}
, 							{
								"box" : 								{
									"comment" : "",
									"id" : "obj-91",
									"index" : 5,
									"maxclass" : "inlet",
									"numinlets" : 0,
									"numoutlets" : 1,
									"outlettype" : [ "" ],
									"patching_rect" : [ 162.5, 137.0, 30.0, 30.0 ],
									"style" : ""
								}

							}
, 							{
								"box" : 								{
									"comment" : "",
									"id" : "obj-92",
									"index" : 6,
									"maxclass" : "inlet",
									"numinlets" : 0,
									"numoutlets" : 1,
									"outlettype" : [ "" ],
									"patching_rect" : [ 197.5, 137.0, 30.0, 30.0 ],
									"style" : ""
								}

							}
, 							{
								"box" : 								{
									"comment" : "",
									"id" : "obj-93",
									"index" : 7,
									"maxclass" : "inlet",
									"numinlets" : 0,
									"numoutlets" : 1,
									"outlettype" : [ "" ],
									"patching_rect" : [ 232.5, 137.0, 30.0, 30.0 ],
									"style" : ""
								}

							}
, 							{
								"box" : 								{
									"comment" : "",
									"id" : "obj-94",
									"index" : 8,
									"maxclass" : "inlet",
									"numinlets" : 0,
									"numoutlets" : 1,
									"outlettype" : [ "" ],
									"patching_rect" : [ 267.5, 137.0, 30.0, 30.0 ],
									"style" : ""
								}

							}
, 							{
								"box" : 								{
									"comment" : "",
									"id" : "obj-95",
									"index" : 9,
									"maxclass" : "inlet",
									"numinlets" : 0,
									"numoutlets" : 1,
									"outlettype" : [ "" ],
									"patching_rect" : [ 302.5, 137.0, 30.0, 30.0 ],
									"style" : ""
								}

							}
, 							{
								"box" : 								{
									"comment" : "",
									"id" : "obj-96",
									"index" : 10,
									"maxclass" : "inlet",
									"numinlets" : 0,
									"numoutlets" : 1,
									"outlettype" : [ "" ],
									"patching_rect" : [ 337.5, 137.0, 30.0, 30.0 ],
									"style" : ""
								}

							}
, 							{
								"box" : 								{
									"comment" : "",
									"id" : "obj-97",
									"index" : 11,
									"maxclass" : "inlet",
									"numinlets" : 0,
									"numoutlets" : 1,
									"outlettype" : [ "" ],
									"patching_rect" : [ 372.5, 137.0, 30.0, 30.0 ],
									"style" : ""
								}

							}
, 							{
								"box" : 								{
									"comment" : "",
									"id" : "obj-98",
									"index" : 12,
									"maxclass" : "inlet",
									"numinlets" : 0,
									"numoutlets" : 1,
									"outlettype" : [ "" ],
									"patching_rect" : [ 407.5, 137.0, 30.0, 30.0 ],
									"style" : ""
								}

							}
, 							{
								"box" : 								{
									"comment" : "",
									"id" : "obj-99",
									"index" : 13,
									"maxclass" : "inlet",
									"numinlets" : 0,
									"numoutlets" : 1,
									"outlettype" : [ "" ],
									"patching_rect" : [ 442.5, 137.0, 30.0, 30.0 ],
									"style" : ""
								}

							}
, 							{
								"box" : 								{
									"comment" : "",
									"id" : "obj-100",
									"index" : 14,
									"maxclass" : "inlet",
									"numinlets" : 0,
									"numoutlets" : 1,
									"outlettype" : [ "" ],
									"patching_rect" : [ 477.5, 137.0, 30.0, 30.0 ],
									"style" : ""
								}

							}
, 							{
								"box" : 								{
									"comment" : "",
									"id" : "obj-101",
									"index" : 15,
									"maxclass" : "inlet",
									"numinlets" : 0,
									"numoutlets" : 1,
									"outlettype" : [ "" ],
									"patching_rect" : [ 512.5, 137.0, 30.0, 30.0 ],
									"style" : ""
								}

							}
 ],
						"lines" : [ 							{
								"patchline" : 								{
									"destination" : [ "obj-14", 0 ],
									"midpoints" : [ 487.0, 168.0, 507.0, 168.0 ],
									"source" : [ "obj-100", 0 ]
								}

							}
, 							{
								"patchline" : 								{
									"destination" : [ "obj-38", 0 ],
									"midpoints" : [ 522.0, 213.0, 600.0, 213.0, 600.0, 288.0, 522.0, 288.0 ],
									"source" : [ "obj-101", 0 ]
								}

							}
, 							{
								"patchline" : 								{
									"destination" : [ "obj-3", 0 ],
									"midpoints" : [ 207.0, 213.0, 9.0, 213.0, 9.0, 405.0, 34.0, 405.0 ],
									"source" : [ "obj-11", 0 ]
								}

							}
, 							{
								"patchline" : 								{
									"destination" : [ "obj-3", 0 ],
									"midpoints" : [ 417.0, 405.0, 34.0, 405.0 ],
									"source" : [ "obj-12", 0 ]
								}

							}
, 							{
								"patchline" : 								{
									"destination" : [ "obj-3", 0 ],
									"midpoints" : [ 507.0, 249.0, 543.0, 249.0, 543.0, 297.0, 507.0, 297.0, 507.0, 405.0, 34.0, 405.0 ],
									"source" : [ "obj-14", 0 ]
								}

							}
, 							{
								"patchline" : 								{
									"destination" : [ "obj-3", 0 ],
									"midpoints" : [ 382.0, 258.0, 429.0, 258.0, 429.0, 288.0, 393.0, 288.0, 393.0, 405.0, 34.0, 405.0 ],
									"source" : [ "obj-15", 0 ]
								}

							}
, 							{
								"patchline" : 								{
									"destination" : [ "obj-3", 0 ],
									"midpoints" : [ 32.0, 414.0, 34.0, 414.0 ],
									"source" : [ "obj-18", 0 ]
								}

							}
, 							{
								"patchline" : 								{
									"destination" : [ "obj-11", 0 ],
									"midpoints" : [ 272.0, 123.0, 228.0, 123.0, 228.0, 171.0, 207.0, 171.0 ],
									"source" : [ "obj-2", 5 ]
								}

							}
, 							{
								"patchline" : 								{
									"destination" : [ "obj-18", 0 ],
									"midpoints" : [ 32.0, 123.0, 9.0, 123.0, 9.0, 351.0, 32.0, 351.0 ],
									"source" : [ "obj-2", 0 ]
								}

							}
, 							{
								"patchline" : 								{
									"destination" : [ "obj-32", 0 ],
									"midpoints" : [ 128.0, 132.0, 123.0, 132.0, 123.0, 213.0, 102.0, 213.0 ],
									"source" : [ "obj-2", 2 ]
								}

							}
, 							{
								"patchline" : 								{
									"destination" : [ "obj-33", 0 ],
									"midpoints" : [ 176.0, 123.0, 54.0, 123.0, 54.0, 261.0, 45.0, 261.0, 45.0, 306.0, 123.0, 306.0, 123.0, 303.0, 137.0, 303.0 ],
									"source" : [ "obj-2", 3 ]
								}

							}
, 							{
								"patchline" : 								{
									"destination" : [ "obj-39", 0 ],
									"midpoints" : [ 224.0, 123.0, 192.0, 123.0, 192.0, 213.0, 219.0, 213.0, 219.0, 258.0, 172.0, 258.0 ],
									"source" : [ "obj-2", 4 ]
								}

							}
, 							{
								"patchline" : 								{
									"destination" : [ "obj-4", 8 ],
									"midpoints" : [ 320.0, 75.0, 297.0, 75.0, 297.0, 123.0, 1026.0, 123.0, 1026.0, 72.0, 1007.0, 72.0 ],
									"order" : 0,
									"source" : [ "obj-2", 6 ]
								}

							}
, 							{
								"patchline" : 								{
									"destination" : [ "obj-4", 7 ],
									"midpoints" : [ 320.0, 75.0, 297.0, 75.0, 297.0, 123.0, 1026.0, 123.0, 1026.0, 63.0, 921.125, 63.0 ],
									"order" : 1,
									"source" : [ "obj-2", 6 ]
								}

							}
, 							{
								"patchline" : 								{
									"destination" : [ "obj-4", 6 ],
									"midpoints" : [ 320.0, 75.0, 835.25, 75.0 ],
									"order" : 2,
									"source" : [ "obj-2", 6 ]
								}

							}
, 							{
								"patchline" : 								{
									"destination" : [ "obj-4", 5 ],
									"midpoints" : [ 320.0, 75.0, 749.375, 75.0 ],
									"order" : 3,
									"source" : [ "obj-2", 6 ]
								}

							}
, 							{
								"patchline" : 								{
									"destination" : [ "obj-4", 4 ],
									"midpoints" : [ 320.0, 75.0, 663.5, 75.0 ],
									"order" : 4,
									"source" : [ "obj-2", 6 ]
								}

							}
, 							{
								"patchline" : 								{
									"destination" : [ "obj-4", 3 ],
									"midpoints" : [ 320.0, 75.0, 577.625, 75.0 ],
									"order" : 5,
									"source" : [ "obj-2", 6 ]
								}

							}
, 							{
								"patchline" : 								{
									"destination" : [ "obj-4", 2 ],
									"midpoints" : [ 320.0, 75.0, 491.75, 75.0 ],
									"order" : 6,
									"source" : [ "obj-2", 6 ]
								}

							}
, 							{
								"patchline" : 								{
									"destination" : [ "obj-4", 1 ],
									"midpoints" : [ 320.0, 75.0, 405.875, 75.0 ],
									"order" : 7,
									"source" : [ "obj-2", 6 ]
								}

							}
, 							{
								"patchline" : 								{
									"destination" : [ "obj-4", 0 ],
									"midpoints" : [ 320.0, 75.0, 320.0, 75.0 ],
									"order" : 8,
									"source" : [ "obj-2", 6 ]
								}

							}
, 							{
								"patchline" : 								{
									"destination" : [ "obj-6", 0 ],
									"midpoints" : [ 80.0, 123.0, 87.0, 123.0, 87.0, 213.0, 68.5, 213.0 ],
									"source" : [ "obj-2", 1 ]
								}

							}
, 							{
								"patchline" : 								{
									"destination" : [ "obj-3", 0 ],
									"midpoints" : [ 452.0, 282.0, 429.0, 282.0, 429.0, 288.0, 393.0, 288.0, 393.0, 405.0, 34.0, 405.0 ],
									"source" : [ "obj-20", 0 ]
								}

							}
, 							{
								"patchline" : 								{
									"destination" : [ "obj-3", 0 ],
									"midpoints" : [ 102.0, 261.0, 9.0, 261.0, 9.0, 405.0, 34.0, 405.0 ],
									"source" : [ "obj-32", 0 ]
								}

							}
, 							{
								"patchline" : 								{
									"destination" : [ "obj-3", 0 ],
									"midpoints" : [ 137.0, 351.0, 153.0, 351.0, 153.0, 405.0, 34.0, 405.0 ],
									"source" : [ "obj-33", 0 ]
								}

							}
, 							{
								"patchline" : 								{
									"destination" : [ "obj-3", 0 ],
									"midpoints" : [ 312.0, 234.0, 219.0, 234.0, 219.0, 213.0, 9.0, 213.0, 9.0, 405.0, 34.0, 405.0 ],
									"source" : [ "obj-34", 0 ]
								}

							}
, 							{
								"patchline" : 								{
									"destination" : [ "obj-3", 0 ],
									"midpoints" : [ 347.0, 303.0, 375.0, 303.0, 375.0, 405.0, 34.0, 405.0 ],
									"source" : [ "obj-35", 0 ]
								}

							}
, 							{
								"patchline" : 								{
									"destination" : [ "obj-3", 0 ],
									"midpoints" : [ 522.0, 405.0, 34.0, 405.0 ],
									"source" : [ "obj-38", 0 ]
								}

							}
, 							{
								"patchline" : 								{
									"destination" : [ "obj-3", 0 ],
									"midpoints" : [ 172.0, 291.0, 156.0, 291.0, 156.0, 303.0, 114.0, 303.0, 114.0, 351.0, 9.0, 351.0, 9.0, 405.0, 34.0, 405.0 ],
									"source" : [ "obj-39", 0 ]
								}

							}
, 							{
								"patchline" : 								{
									"destination" : [ "obj-12", 0 ],
									"midpoints" : [ 835.25, 288.0, 417.0, 288.0 ],
									"source" : [ "obj-4", 6 ]
								}

							}
, 							{
								"patchline" : 								{
									"destination" : [ "obj-14", 0 ],
									"midpoints" : [ 921.125, 213.0, 507.0, 213.0 ],
									"source" : [ "obj-4", 7 ]
								}

							}
, 							{
								"patchline" : 								{
									"destination" : [ "obj-15", 0 ],
									"midpoints" : [ 663.5, 213.0, 387.0, 213.0, 387.0, 225.0, 382.0, 225.0 ],
									"source" : [ "obj-4", 4 ]
								}

							}
, 							{
								"patchline" : 								{
									"destination" : [ "obj-20", 0 ],
									"midpoints" : [ 749.375, 184.75, 452.0, 184.75 ],
									"source" : [ "obj-4", 5 ]
								}

							}
, 							{
								"patchline" : 								{
									"destination" : [ "obj-34", 0 ],
									"midpoints" : [ 491.75, 123.0, 333.0, 123.0, 333.0, 195.0, 312.0, 195.0 ],
									"source" : [ "obj-4", 2 ]
								}

							}
, 							{
								"patchline" : 								{
									"destination" : [ "obj-35", 0 ],
									"midpoints" : [ 577.625, 189.0, 347.0, 189.0 ],
									"source" : [ "obj-4", 3 ]
								}

							}
, 							{
								"patchline" : 								{
									"destination" : [ "obj-38", 0 ],
									"midpoints" : [ 1007.0, 288.0, 522.0, 288.0 ],
									"source" : [ "obj-4", 8 ]
								}

							}
, 							{
								"patchline" : 								{
									"destination" : [ "obj-42", 0 ],
									"midpoints" : [ 320.0, 123.0, 192.0, 123.0, 192.0, 213.0, 219.0, 213.0, 219.0, 261.0, 159.0, 261.0, 159.0, 300.0, 242.0, 300.0 ],
									"source" : [ "obj-4", 0 ]
								}

							}
, 							{
								"patchline" : 								{
									"destination" : [ "obj-9", 0 ],
									"midpoints" : [ 405.875, 123.0, 333.0, 123.0, 333.0, 195.0, 312.0, 195.0, 312.0, 204.0, 288.0, 204.0, 288.0, 228.0, 277.0, 228.0 ],
									"source" : [ "obj-4", 1 ]
								}

							}
, 							{
								"patchline" : 								{
									"destination" : [ "obj-3", 0 ],
									"midpoints" : [ 242.0, 405.0, 34.0, 405.0 ],
									"source" : [ "obj-42", 0 ]
								}

							}
, 							{
								"patchline" : 								{
									"destination" : [ "obj-3", 0 ],
									"midpoints" : [ 68.5, 351.0, 9.0, 351.0, 9.0, 405.0, 34.0, 405.0 ],
									"source" : [ "obj-6", 0 ]
								}

							}
, 							{
								"patchline" : 								{
									"destination" : [ "obj-18", 0 ],
									"midpoints" : [ 32.0, 168.0, 32.0, 168.0 ],
									"source" : [ "obj-87", 0 ]
								}

							}
, 							{
								"patchline" : 								{
									"destination" : [ "obj-6", 0 ],
									"midpoints" : [ 67.0, 168.0, 68.5, 168.0 ],
									"source" : [ "obj-88", 0 ]
								}

							}
, 							{
								"patchline" : 								{
									"destination" : [ "obj-32", 0 ],
									"midpoints" : [ 102.0, 168.0, 102.0, 168.0 ],
									"source" : [ "obj-89", 0 ]
								}

							}
, 							{
								"patchline" : 								{
									"destination" : [ "obj-3", 0 ],
									"midpoints" : [ 277.0, 303.0, 228.0, 303.0, 228.0, 405.0, 34.0, 405.0 ],
									"source" : [ "obj-9", 0 ]
								}

							}
, 							{
								"patchline" : 								{
									"destination" : [ "obj-33", 0 ],
									"midpoints" : [ 137.0, 213.0, 45.0, 213.0, 45.0, 306.0, 123.0, 306.0, 123.0, 303.0, 137.0, 303.0 ],
									"source" : [ "obj-90", 0 ]
								}

							}
, 							{
								"patchline" : 								{
									"destination" : [ "obj-39", 0 ],
									"midpoints" : [ 172.0, 213.0, 219.0, 213.0, 219.0, 258.0, 172.0, 258.0 ],
									"source" : [ "obj-91", 0 ]
								}

							}
, 							{
								"patchline" : 								{
									"destination" : [ "obj-11", 0 ],
									"midpoints" : [ 207.0, 168.0, 207.0, 168.0 ],
									"source" : [ "obj-92", 0 ]
								}

							}
, 							{
								"patchline" : 								{
									"destination" : [ "obj-42", 0 ],
									"midpoints" : [ 242.0, 168.0, 183.0, 168.0, 183.0, 213.0, 219.0, 213.0, 219.0, 261.0, 159.0, 261.0, 159.0, 300.0, 242.0, 300.0 ],
									"source" : [ "obj-93", 0 ]
								}

							}
, 							{
								"patchline" : 								{
									"destination" : [ "obj-9", 0 ],
									"midpoints" : [ 277.0, 168.0, 312.0, 168.0, 312.0, 204.0, 288.0, 204.0, 288.0, 228.0, 277.0, 228.0 ],
									"source" : [ "obj-94", 0 ]
								}

							}
, 							{
								"patchline" : 								{
									"destination" : [ "obj-34", 0 ],
									"midpoints" : [ 312.0, 168.0, 312.0, 168.0 ],
									"source" : [ "obj-95", 0 ]
								}

							}
, 							{
								"patchline" : 								{
									"destination" : [ "obj-35", 0 ],
									"midpoints" : [ 347.0, 216.0, 347.0, 216.0 ],
									"source" : [ "obj-96", 0 ]
								}

							}
, 							{
								"patchline" : 								{
									"destination" : [ "obj-15", 0 ],
									"midpoints" : [ 382.0, 168.0, 382.0, 168.0 ],
									"source" : [ "obj-97", 0 ]
								}

							}
, 							{
								"patchline" : 								{
									"destination" : [ "obj-12", 0 ],
									"midpoints" : [ 417.0, 213.0, 600.0, 213.0, 600.0, 288.0, 417.0, 288.0 ],
									"source" : [ "obj-98", 0 ]
								}

							}
, 							{
								"patchline" : 								{
									"destination" : [ "obj-20", 0 ],
									"midpoints" : [ 452.0, 168.0, 452.0, 168.0 ],
									"source" : [ "obj-99", 0 ]
								}

							}
 ]
					}
,
					"patching_rect" : [ 531.5, 457.0, 212.0, 22.0 ],
					"saved_object_attributes" : 					{
						"description" : "",
						"digest" : "",
						"globalpatchername" : "",
						"style" : "",
						"tags" : ""
					}
,
					"style" : "",
					"text" : "p spindriftclumpmessagepatcher #2"
				}

			}
, 			{
				"box" : 				{
					"fontname" : "Arial",
					"fontsize" : 16.0,
					"id" : "obj-45",
					"maxclass" : "comment",
					"numinlets" : 1,
					"numoutlets" : 0,
					"patching_rect" : [ 702.0, 185.0, 196.0, 24.0 ],
					"presentation" : 1,
					"presentation_rect" : [ 393.5, 46.0, 196.0, 24.0 ],
					"style" : "",
					"text" : "Clump envelope definition",
					"textcolor" : [ 0.952941, 0.564706, 0.098039, 1.0 ]
				}

			}
, 			{
				"box" : 				{
					"fontname" : "Arial",
					"fontsize" : 16.0,
					"id" : "obj-44",
					"maxclass" : "comment",
					"numinlets" : 1,
					"numoutlets" : 0,
					"patching_rect" : [ 520.0, 185.0, 177.0, 24.0 ],
					"presentation" : 1,
					"presentation_rect" : [ 201.0, 46.0, 177.0, 24.0 ],
					"style" : "",
					"text" : "Space between clumps",
					"textcolor" : [ 0.952941, 0.564706, 0.098039, 1.0 ]
				}

			}
, 			{
				"box" : 				{
					"fontname" : "Arial",
					"fontsize" : 16.0,
					"id" : "obj-47",
					"maxclass" : "comment",
					"numinlets" : 1,
					"numoutlets" : 0,
					"patching_rect" : [ 385.0, 185.0, 137.0, 24.0 ],
					"presentation" : 1,
					"presentation_rect" : [ 39.0, 46.0, 137.0, 24.0 ],
					"style" : "",
					"text" : "Duration of clump",
					"textcolor" : [ 0.952941, 0.564706, 0.098039, 1.0 ]
				}

			}
, 			{
				"box" : 				{
					"fontname" : "Arial Bold",
					"fontsize" : 16.0,
					"id" : "obj-46",
					"maxclass" : "comment",
					"numinlets" : 1,
					"numoutlets" : 0,
					"patching_rect" : [ 524.5, 279.5, 203.0, 24.0 ],
					"presentation" : 1,
					"presentation_rect" : [ 178.5, 140.5, 203.0, 24.0 ],
					"style" : "",
					"text" : "BASIC GRAIN SETTINGS",
					"textcolor" : [ 0.952941, 0.564706, 0.098039, 1.0 ]
				}

			}
, 			{
				"box" : 				{
					"activedialcolor" : [ 0.870588, 0.415686, 0.062745, 1.0 ],
					"activeneedlecolor" : [ 0.952941, 0.564706, 0.098039, 1.0 ],
					"dialcolor" : [ 1.0, 1.0, 1.0, 1.0 ],
					"fontsize" : 16.0,
					"id" : "obj-37",
					"maxclass" : "live.dial",
					"needlecolor" : [ 1.0, 1.0, 1.0, 1.0 ],
					"numinlets" : 1,
					"numoutlets" : 2,
					"outlettype" : [ "", "float" ],
					"parameter_enable" : 1,
					"patching_rect" : [ 813.0, 213.0, 85.0, 60.0 ],
					"presentation" : 1,
					"presentation_rect" : [ 504.5, 74.0, 85.0, 60.0 ],
					"saved_attribute_attributes" : 					{
						"valueof" : 						{
							"parameter_longname" : "live.dial[28]",
							"parameter_shortname" : "Clmp Exp",
							"parameter_type" : 0,
							"parameter_mmin" : 1.0,
							"parameter_mmax" : 10.0,
							"parameter_initial_enable" : 1,
							"parameter_initial" : [ 0 ],
							"parameter_unitstyle" : 1
						}

					}
,
					"textcolor" : [ 0.952941, 0.564706, 0.098039, 1.0 ],
					"tricolor" : [ 0.439216, 0.74902, 0.254902, 1.0 ],
					"varname" : "live.dial[14]"
				}

			}
, 			{
				"box" : 				{
					"activedialcolor" : [ 0.870588, 0.415686, 0.062745, 1.0 ],
					"activeneedlecolor" : [ 0.952941, 0.564706, 0.098039, 1.0 ],
					"dialcolor" : [ 1.0, 1.0, 1.0, 1.0 ],
					"fontsize" : 16.0,
					"id" : "obj-36",
					"maxclass" : "live.dial",
					"needlecolor" : [ 1.0, 1.0, 1.0, 1.0 ],
					"numinlets" : 1,
					"numoutlets" : 2,
					"outlettype" : [ "", "float" ],
					"parameter_enable" : 1,
					"patching_rect" : [ 734.5, 213.0, 85.0, 60.0 ],
					"presentation" : 1,
					"presentation_rect" : [ 426.0, 74.0, 85.0, 60.0 ],
					"saved_attribute_attributes" : 					{
						"valueof" : 						{
							"parameter_longname" : "live.dial[27]",
							"parameter_shortname" : "Clmp Skew",
							"parameter_type" : 0,
							"parameter_mmin" : -1.0,
							"parameter_mmax" : 1.0,
							"parameter_initial_enable" : 1,
							"parameter_initial" : [ 0 ],
							"parameter_unitstyle" : 1
						}

					}
,
					"textcolor" : [ 0.952941, 0.564706, 0.098039, 1.0 ],
					"tricolor" : [ 0.439216, 0.74902, 0.254902, 1.0 ],
					"varname" : "live.dial[12]"
				}

			}
, 			{
				"box" : 				{
					"activedialcolor" : [ 0.870588, 0.415686, 0.062745, 1.0 ],
					"activeneedlecolor" : [ 0.952941, 0.564706, 0.098039, 1.0 ],
					"dialcolor" : [ 1.0, 1.0, 1.0, 1.0 ],
					"fontsize" : 16.0,
					"id" : "obj-4",
					"maxclass" : "live.dial",
					"needlecolor" : [ 1.0, 1.0, 1.0, 1.0 ],
					"numinlets" : 1,
					"numoutlets" : 2,
					"outlettype" : [ "", "float" ],
					"parameter_enable" : 1,
					"patching_rect" : [ 654.5, 213.0, 85.0, 60.0 ],
					"presentation" : 1,
					"presentation_rect" : [ 340.75, 74.0, 85.0, 60.0 ],
					"saved_attribute_attributes" : 					{
						"valueof" : 						{
							"parameter_longname" : "live.dial[26]",
							"parameter_shortname" : "Clmp Fade",
							"parameter_type" : 0,
							"parameter_mmax" : 1.0,
							"parameter_initial_enable" : 1,
							"parameter_initial" : [ 0 ],
							"parameter_unitstyle" : 1
						}

					}
,
					"textcolor" : [ 0.952941, 0.564706, 0.098039, 1.0 ],
					"tricolor" : [ 0.439216, 0.74902, 0.254902, 1.0 ],
					"varname" : "live.dial[13]"
				}

			}
, 			{
				"box" : 				{
					"activedialcolor" : [ 0.870588, 0.415686, 0.062745, 1.0 ],
					"activeneedlecolor" : [ 0.952941, 0.564706, 0.098039, 1.0 ],
					"dialcolor" : [ 1.0, 1.0, 1.0, 1.0 ],
					"fontsize" : 16.0,
					"id" : "obj-30",
					"maxclass" : "live.dial",
					"needlecolor" : [ 1.0, 1.0, 1.0, 1.0 ],
					"numinlets" : 1,
					"numoutlets" : 2,
					"outlettype" : [ "", "float" ],
					"parameter_enable" : 1,
					"patching_rect" : [ 610.0, 213.0, 71.0, 60.0 ],
					"presentation" : 1,
					"presentation_rect" : [ 284.0, 74.0, 71.0, 60.0 ],
					"saved_attribute_attributes" : 					{
						"valueof" : 						{
							"parameter_longname" : "live.dial[23]",
							"parameter_shortname" : "",
							"parameter_type" : 0,
							"parameter_mmax" : 2000.0,
							"parameter_initial_enable" : 1,
							"parameter_initial" : [ 0 ],
							"parameter_unitstyle" : 2
						}

					}
,
					"textcolor" : [ 0.952941, 0.564706, 0.098039, 1.0 ],
					"tricolor" : [ 0.439216, 0.74902, 0.254902, 1.0 ],
					"varname" : "live.dial[10]"
				}

			}
, 			{
				"box" : 				{
					"activedialcolor" : [ 0.870588, 0.415686, 0.062745, 1.0 ],
					"activeneedlecolor" : [ 0.952941, 0.564706, 0.098039, 1.0 ],
					"dialcolor" : [ 1.0, 1.0, 1.0, 1.0 ],
					"fontsize" : 16.0,
					"id" : "obj-31",
					"maxclass" : "live.dial",
					"needlecolor" : [ 1.0, 1.0, 1.0, 1.0 ],
					"numinlets" : 1,
					"numoutlets" : 2,
					"outlettype" : [ "", "float" ],
					"parameter_enable" : 1,
					"patching_rect" : [ 520.0, 213.0, 119.0, 60.0 ],
					"presentation" : 1,
					"presentation_rect" : [ 174.0, 74.0, 119.0, 60.0 ],
					"saved_attribute_attributes" : 					{
						"valueof" : 						{
							"parameter_longname" : "live.dial[24]",
							"parameter_shortname" : "Clump Spacing",
							"parameter_type" : 0,
							"parameter_mmin" : 100.0,
							"parameter_mmax" : 5000.0,
							"parameter_initial_enable" : 1,
							"parameter_initial" : [ 0 ],
							"parameter_unitstyle" : 2
						}

					}
,
					"textcolor" : [ 0.952941, 0.564706, 0.098039, 1.0 ],
					"tricolor" : [ 0.439216, 0.74902, 0.254902, 1.0 ],
					"varname" : "live.dial[11]"
				}

			}
, 			{
				"box" : 				{
					"activedialcolor" : [ 0.870588, 0.415686, 0.062745, 1.0 ],
					"activeneedlecolor" : [ 0.952941, 0.564706, 0.098039, 1.0 ],
					"dialcolor" : [ 1.0, 1.0, 1.0, 1.0 ],
					"fontsize" : 16.0,
					"id" : "obj-27",
					"maxclass" : "live.dial",
					"needlecolor" : [ 1.0, 1.0, 1.0, 1.0 ],
					"numinlets" : 1,
					"numoutlets" : 2,
					"outlettype" : [ "", "float" ],
					"parameter_enable" : 1,
					"patching_rect" : [ 468.5, 213.0, 71.0, 60.0 ],
					"presentation" : 1,
					"presentation_rect" : [ 122.5, 74.0, 71.0, 60.0 ],
					"saved_attribute_attributes" : 					{
						"valueof" : 						{
							"parameter_longname" : "live.dial[21]",
							"parameter_shortname" : "",
							"parameter_type" : 0,
							"parameter_mmax" : 2000.0,
							"parameter_initial_enable" : 1,
							"parameter_initial" : [ 0 ],
							"parameter_unitstyle" : 2
						}

					}
,
					"textcolor" : [ 0.952941, 0.564706, 0.098039, 1.0 ],
					"tricolor" : [ 0.439216, 0.74902, 0.254902, 1.0 ],
					"varname" : "live.dial[8]"
				}

			}
, 			{
				"box" : 				{
					"activedialcolor" : [ 0.870588, 0.415686, 0.062745, 1.0 ],
					"activeneedlecolor" : [ 0.952941, 0.564706, 0.098039, 1.0 ],
					"dialcolor" : [ 1.0, 1.0, 1.0, 1.0 ],
					"fontsize" : 16.0,
					"id" : "obj-29",
					"maxclass" : "live.dial",
					"needlecolor" : [ 1.0, 1.0, 1.0, 1.0 ],
					"numinlets" : 1,
					"numoutlets" : 2,
					"outlettype" : [ "", "float" ],
					"parameter_enable" : 1,
					"patching_rect" : [ 376.5, 213.0, 119.0, 60.0 ],
					"presentation" : 1,
					"presentation_rect" : [ 30.5, 74.0, 119.0, 60.0 ],
					"saved_attribute_attributes" : 					{
						"valueof" : 						{
							"parameter_longname" : "live.dial[22]",
							"parameter_shortname" : "Clump Duration",
							"parameter_type" : 0,
							"parameter_mmin" : 1000.0,
							"parameter_mmax" : 5000.0,
							"parameter_initial_enable" : 1,
							"parameter_initial" : [ 0 ],
							"parameter_unitstyle" : 2
						}

					}
,
					"textcolor" : [ 0.952941, 0.564706, 0.098039, 1.0 ],
					"tricolor" : [ 0.439216, 0.74902, 0.254902, 1.0 ],
					"varname" : "live.dial[9]"
				}

			}
, 			{
				"box" : 				{
					"activedialcolor" : [ 0.870588, 0.415686, 0.062745, 1.0 ],
					"activeneedlecolor" : [ 0.952941, 0.564706, 0.098039, 1.0 ],
					"dialcolor" : [ 1.0, 1.0, 1.0, 1.0 ],
					"fontsize" : 16.0,
					"id" : "obj-25",
					"maxclass" : "live.dial",
					"needlecolor" : [ 1.0, 1.0, 1.0, 1.0 ],
					"numinlets" : 1,
					"numoutlets" : 2,
					"outlettype" : [ "", "float" ],
					"parameter_enable" : 1,
					"patching_rect" : [ 780.0, 365.5, 69.0, 60.0 ],
					"presentation" : 1,
					"presentation_rect" : [ 434.0, 237.5, 69.0, 60.0 ],
					"saved_attribute_attributes" : 					{
						"valueof" : 						{
							"parameter_longname" : "live.dial[13]",
							"parameter_shortname" : "",
							"parameter_type" : 0,
							"parameter_mmax" : 12.0,
							"parameter_initial_enable" : 1,
							"parameter_initial" : [ 0 ],
							"parameter_unitstyle" : 9,
							"parameter_units" : "st"
						}

					}
,
					"textcolor" : [ 0.952941, 0.564706, 0.098039, 1.0 ],
					"tricolor" : [ 0.439216, 0.74902, 0.254902, 1.0 ],
					"varname" : "live.dial[6]"
				}

			}
, 			{
				"box" : 				{
					"activedialcolor" : [ 0.870588, 0.415686, 0.062745, 1.0 ],
					"activeneedlecolor" : [ 0.952941, 0.564706, 0.098039, 1.0 ],
					"dialcolor" : [ 1.0, 1.0, 1.0, 1.0 ],
					"fontsize" : 16.0,
					"id" : "obj-13",
					"maxclass" : "live.dial",
					"needlecolor" : [ 1.0, 1.0, 1.0, 1.0 ],
					"numinlets" : 1,
					"numoutlets" : 2,
					"outlettype" : [ "", "float" ],
					"parameter_enable" : 1,
					"patching_rect" : [ 780.0, 314.5, 69.0, 60.0 ],
					"presentation" : 1,
					"presentation_rect" : [ 434.0, 175.5, 69.0, 60.0 ],
					"saved_attribute_attributes" : 					{
						"valueof" : 						{
							"parameter_longname" : "live.dial[14]",
							"parameter_shortname" : "Pitch",
							"parameter_type" : 0,
							"parameter_mmin" : -12.0,
							"parameter_mmax" : 12.0,
							"parameter_initial_enable" : 1,
							"parameter_initial" : [ 0 ],
							"parameter_unitstyle" : 9,
							"parameter_units" : "st"
						}

					}
,
					"textcolor" : [ 0.952941, 0.564706, 0.098039, 1.0 ],
					"tricolor" : [ 0.439216, 0.74902, 0.254902, 1.0 ],
					"varname" : "live.dial[7]"
				}

			}
, 			{
				"box" : 				{
					"activedialcolor" : [ 0.870588, 0.415686, 0.062745, 1.0 ],
					"activeneedlecolor" : [ 0.952941, 0.564706, 0.098039, 1.0 ],
					"dialcolor" : [ 1.0, 1.0, 1.0, 1.0 ],
					"fontsize" : 16.0,
					"id" : "obj-7",
					"maxclass" : "live.dial",
					"needlecolor" : [ 1.0, 1.0, 1.0, 1.0 ],
					"numinlets" : 1,
					"numoutlets" : 2,
					"outlettype" : [ "", "float" ],
					"parameter_enable" : 1,
					"patching_rect" : [ 666.0, 365.5, 71.0, 60.0 ],
					"presentation" : 1,
					"presentation_rect" : [ 315.5, 237.5, 71.0, 60.0 ],
					"saved_attribute_attributes" : 					{
						"valueof" : 						{
							"parameter_longname" : "live.dial[15]",
							"parameter_shortname" : "RH Jitter",
							"parameter_type" : 0,
							"parameter_mmax" : 1000.0,
							"parameter_initial_enable" : 1,
							"parameter_initial" : [ 1.0 ],
							"parameter_unitstyle" : 2,
							"parameter_exponent" : 4.0
						}

					}
,
					"textcolor" : [ 0.952941, 0.564706, 0.098039, 1.0 ],
					"tricolor" : [ 0.439216, 0.74902, 0.254902, 1.0 ],
					"varname" : "live.dial[4]"
				}

			}
, 			{
				"box" : 				{
					"activedialcolor" : [ 0.870588, 0.415686, 0.062745, 1.0 ],
					"activeneedlecolor" : [ 0.952941, 0.564706, 0.098039, 1.0 ],
					"dialcolor" : [ 1.0, 1.0, 1.0, 1.0 ],
					"fontsize" : 16.0,
					"id" : "obj-61",
					"maxclass" : "live.dial",
					"needlecolor" : [ 1.0, 1.0, 1.0, 1.0 ],
					"numinlets" : 1,
					"numoutlets" : 2,
					"outlettype" : [ "", "float" ],
					"parameter_enable" : 1,
					"patching_rect" : [ 657.5, 314.5, 88.0, 60.0 ],
					"presentation" : 1,
					"presentation_rect" : [ 311.5, 175.5, 88.0, 60.0 ],
					"saved_attribute_attributes" : 					{
						"valueof" : 						{
							"parameter_longname" : "live.dial[16]",
							"parameter_shortname" : "RH Speed",
							"parameter_type" : 0,
							"parameter_mmin" : 0.01,
							"parameter_mmax" : 2.0,
							"parameter_initial_enable" : 1,
							"parameter_initial" : [ 1.0 ],
							"parameter_unitstyle" : 1,
							"parameter_exponent" : 4.0
						}

					}
,
					"textcolor" : [ 0.952941, 0.564706, 0.098039, 1.0 ],
					"tricolor" : [ 0.439216, 0.74902, 0.254902, 1.0 ],
					"varname" : "live.dial[5]"
				}

			}
, 			{
				"box" : 				{
					"activedialcolor" : [ 0.870588, 0.415686, 0.062745, 1.0 ],
					"activeneedlecolor" : [ 0.952941, 0.564706, 0.098039, 1.0 ],
					"dialcolor" : [ 1.0, 1.0, 1.0, 1.0 ],
					"fontsize" : 16.0,
					"id" : "obj-57",
					"maxclass" : "live.dial",
					"needlecolor" : [ 1.0, 1.0, 1.0, 1.0 ],
					"numinlets" : 1,
					"numoutlets" : 2,
					"outlettype" : [ "", "float" ],
					"parameter_enable" : 1,
					"patching_rect" : [ 529.0, 365.5, 71.0, 60.0 ],
					"presentation" : 1,
					"presentation_rect" : [ 183.0, 237.5, 71.0, 60.0 ],
					"saved_attribute_attributes" : 					{
						"valueof" : 						{
							"parameter_longname" : "live.dial[17]",
							"parameter_shortname" : "",
							"parameter_type" : 0,
							"parameter_mmax" : 500.0,
							"parameter_initial_enable" : 1,
							"parameter_initial" : [ 1 ],
							"parameter_unitstyle" : 2,
							"parameter_exponent" : 4.0
						}

					}
,
					"textcolor" : [ 0.952941, 0.564706, 0.098039, 1.0 ],
					"tricolor" : [ 0.439216, 0.74902, 0.254902, 1.0 ],
					"varname" : "live.dial[2]"
				}

			}
, 			{
				"box" : 				{
					"activedialcolor" : [ 0.870588, 0.415686, 0.062745, 1.0 ],
					"activeneedlecolor" : [ 0.952941, 0.564706, 0.098039, 1.0 ],
					"dialcolor" : [ 1.0, 1.0, 1.0, 1.0 ],
					"fontsize" : 16.0,
					"id" : "obj-58",
					"maxclass" : "live.dial",
					"needlecolor" : [ 1.0, 1.0, 1.0, 1.0 ],
					"numinlets" : 1,
					"numoutlets" : 2,
					"outlettype" : [ "", "float" ],
					"parameter_enable" : 1,
					"patching_rect" : [ 529.0, 314.5, 71.0, 60.0 ],
					"presentation" : 1,
					"presentation_rect" : [ 183.0, 175.5, 71.0, 60.0 ],
					"saved_attribute_attributes" : 					{
						"valueof" : 						{
							"parameter_longname" : "live.dial[18]",
							"parameter_shortname" : "Spacing",
							"parameter_type" : 0,
							"parameter_mmin" : 1.0,
							"parameter_mmax" : 1000.0,
							"parameter_initial_enable" : 1,
							"parameter_initial" : [ 5 ],
							"parameter_unitstyle" : 2,
							"parameter_exponent" : 4.0
						}

					}
,
					"textcolor" : [ 0.952941, 0.564706, 0.098039, 1.0 ],
					"tricolor" : [ 0.439216, 0.74902, 0.254902, 1.0 ],
					"varname" : "live.dial[3]"
				}

			}
, 			{
				"box" : 				{
					"activedialcolor" : [ 0.870588, 0.415686, 0.062745, 1.0 ],
					"activeneedlecolor" : [ 0.952941, 0.564706, 0.098039, 1.0 ],
					"dialcolor" : [ 1.0, 1.0, 1.0, 1.0 ],
					"fontsize" : 16.0,
					"id" : "obj-55",
					"maxclass" : "live.dial",
					"needlecolor" : [ 1.0, 1.0, 1.0, 1.0 ],
					"numinlets" : 1,
					"numoutlets" : 2,
					"outlettype" : [ "", "float" ],
					"parameter_enable" : 1,
					"patching_rect" : [ 400.5, 365.5, 71.0, 60.0 ],
					"presentation" : 1,
					"presentation_rect" : [ 54.5, 237.5, 71.0, 60.0 ],
					"saved_attribute_attributes" : 					{
						"valueof" : 						{
							"parameter_longname" : "live.dial[19]",
							"parameter_shortname" : "",
							"parameter_type" : 0,
							"parameter_mmax" : 500.0,
							"parameter_initial_enable" : 1,
							"parameter_initial" : [ 0 ],
							"parameter_unitstyle" : 2,
							"parameter_exponent" : 4.0
						}

					}
,
					"textcolor" : [ 0.952941, 0.564706, 0.098039, 1.0 ],
					"tricolor" : [ 0.439216, 0.74902, 0.254902, 1.0 ],
					"varname" : "live.dial[1]"
				}

			}
, 			{
				"box" : 				{
					"activedialcolor" : [ 0.870588, 0.415686, 0.062745, 1.0 ],
					"activeneedlecolor" : [ 0.952941, 0.564706, 0.098039, 1.0 ],
					"dialcolor" : [ 1.0, 1.0, 1.0, 1.0 ],
					"fontsize" : 16.0,
					"id" : "obj-52",
					"maxclass" : "live.dial",
					"needlecolor" : [ 1.0, 1.0, 1.0, 1.0 ],
					"numinlets" : 1,
					"numoutlets" : 2,
					"outlettype" : [ "", "float" ],
					"parameter_enable" : 1,
					"patching_rect" : [ 400.5, 314.5, 71.0, 60.0 ],
					"presentation" : 1,
					"presentation_rect" : [ 54.5, 175.5, 71.0, 60.0 ],
					"saved_attribute_attributes" : 					{
						"valueof" : 						{
							"parameter_longname" : "live.dial[20]",
							"parameter_shortname" : "Duration",
							"parameter_type" : 0,
							"parameter_mmin" : 1.0,
							"parameter_mmax" : 1000.0,
							"parameter_initial_enable" : 1,
							"parameter_initial" : [ 50 ],
							"parameter_unitstyle" : 2,
							"parameter_exponent" : 4.0
						}

					}
,
					"textcolor" : [ 0.952941, 0.564706, 0.098039, 1.0 ],
					"tricolor" : [ 0.439216, 0.74902, 0.254902, 1.0 ],
					"varname" : "live.dial"
				}

			}
, 			{
				"box" : 				{
					"id" : "obj-5",
					"maxclass" : "message",
					"numinlets" : 2,
					"numoutlets" : 1,
					"outlettype" : [ "" ],
					"patching_rect" : [ 122.0, 72.0, 100.0, 22.0 ],
					"style" : "",
					"text" : "importreplace $1"
				}

			}
, 			{
				"box" : 				{
					"id" : "obj-2",
					"linecount" : 2,
					"maxclass" : "newobj",
					"numinlets" : 1,
					"numoutlets" : 2,
					"outlettype" : [ "float", "bang" ],
					"patching_rect" : [ 122.0, 101.0, 240.0, 35.0 ],
					"style" : "",
					"text" : "buffer~ #1_SpinDriftCloudbuff @size 5000"
				}

			}
, 			{
				"box" : 				{
					"angle" : 0.0,
					"background" : 1,
					"bgcolor" : [ 0.0, 0.0, 0.0, 1.0 ],
					"bordercolor" : [ 0.0, 0.0, 0.0, 1.0 ],
					"id" : "obj-62",
					"maxclass" : "panel",
					"mode" : 0,
					"numinlets" : 1,
					"numoutlets" : 0,
					"patching_rect" : [ 343.0, 148.5, 589.5, 371.5 ],
					"presentation" : 1,
					"presentation_rect" : [ -1.0, -1.75, 768.5, 606.5 ],
					"proportion" : 0.39,
					"rounded" : 12,
					"style" : ""
				}

			}
 ],
		"lines" : [ 			{
				"patchline" : 				{
					"destination" : [ "obj-3", 0 ],
					"midpoints" : [ 29.5, 121.125, 58.5, 121.125 ],
					"source" : [ "obj-11", 0 ]
				}

			}
, 			{
				"patchline" : 				{
					"destination" : [ "obj-9", 0 ],
					"source" : [ "obj-12", 0 ]
				}

			}
, 			{
				"patchline" : 				{
					"color" : [ 0.0, 0.0, 0.0, 0.9 ],
					"destination" : [ "obj-102", 8 ],
					"hidden" : 1,
					"midpoints" : [ 789.5, 363.0, 722.0, 363.0, 722.0, 444.0, 651.285714, 444.0 ],
					"source" : [ "obj-13", 0 ]
				}

			}
, 			{
				"patchline" : 				{
					"destination" : [ "obj-12", 0 ],
					"order" : 2,
					"source" : [ "obj-14", 1 ]
				}

			}
, 			{
				"patchline" : 				{
					"destination" : [ "obj-64", 0 ],
					"order" : 1,
					"source" : [ "obj-14", 1 ]
				}

			}
, 			{
				"patchline" : 				{
					"destination" : [ "obj-8", 0 ],
					"order" : 0,
					"source" : [ "obj-14", 1 ]
				}

			}
, 			{
				"patchline" : 				{
					"destination" : [ "obj-10", 0 ],
					"source" : [ "obj-15", 0 ]
				}

			}
, 			{
				"patchline" : 				{
					"destination" : [ "obj-6", 0 ],
					"source" : [ "obj-15", 1 ]
				}

			}
, 			{
				"patchline" : 				{
					"destination" : [ "obj-1", 0 ],
					"midpoints" : [ 762.400024, 709.0, 709.0, 709.0 ],
					"source" : [ "obj-16", 0 ]
				}

			}
, 			{
				"patchline" : 				{
					"color" : [ 0.0, 0.0, 0.0, 0.9 ],
					"destination" : [ "obj-29", 0 ],
					"hidden" : 1,
					"midpoints" : [ 386.0, 171.0, 372.0, 171.0, 372.0, 207.0, 386.0, 207.0 ],
					"source" : [ "obj-17", 0 ]
				}

			}
, 			{
				"patchline" : 				{
					"destination" : [ "obj-19", 0 ],
					"source" : [ "obj-18", 0 ]
				}

			}
, 			{
				"patchline" : 				{
					"destination" : [ "obj-11", 0 ],
					"midpoints" : [ 212.5, 348.0, 108.0, 348.0, 108.0, 330.0, 6.0, 330.0, 6.0, 84.0, 29.5, 84.0 ],
					"order" : 15,
					"source" : [ "obj-19", 0 ]
				}

			}
, 			{
				"patchline" : 				{
					"color" : [ 0.0, 0.0, 0.0, 0.9 ],
					"destination" : [ "obj-13", 0 ],
					"hidden" : 1,
					"midpoints" : [ 212.5, 435.0, 765.0, 435.0, 765.0, 309.0, 789.5, 309.0 ],
					"order" : 2,
					"source" : [ "obj-19", 0 ]
				}

			}
, 			{
				"patchline" : 				{
					"color" : [ 0.0, 0.0, 0.0, 0.9 ],
					"destination" : [ "obj-25", 0 ],
					"hidden" : 1,
					"midpoints" : [ 212.5, 435.0, 765.0, 435.0, 765.0, 360.0, 789.5, 360.0 ],
					"order" : 1,
					"source" : [ "obj-19", 0 ]
				}

			}
, 			{
				"patchline" : 				{
					"color" : [ 0.0, 0.0, 0.0, 0.9 ],
					"destination" : [ "obj-27", 0 ],
					"hidden" : 1,
					"midpoints" : [ 212.5, 357.0, 363.0, 357.0, 363.0, 210.0, 478.0, 210.0 ],
					"order" : 11,
					"source" : [ "obj-19", 0 ]
				}

			}
, 			{
				"patchline" : 				{
					"color" : [ 0.0, 0.0, 0.0, 0.9 ],
					"destination" : [ "obj-29", 0 ],
					"hidden" : 1,
					"midpoints" : [ 212.5, 357.0, 363.0, 357.0, 363.0, 207.0, 386.0, 207.0 ],
					"order" : 14,
					"source" : [ "obj-19", 0 ]
				}

			}
, 			{
				"patchline" : 				{
					"color" : [ 0.0, 0.0, 0.0, 0.9 ],
					"destination" : [ "obj-30", 0 ],
					"hidden" : 1,
					"midpoints" : [ 212.5, 357.0, 363.0, 357.0, 363.0, 210.0, 619.5, 210.0 ],
					"order" : 7,
					"source" : [ "obj-19", 0 ]
				}

			}
, 			{
				"patchline" : 				{
					"color" : [ 0.0, 0.0, 0.0, 0.9 ],
					"destination" : [ "obj-31", 0 ],
					"hidden" : 1,
					"midpoints" : [ 212.5, 357.0, 363.0, 357.0, 363.0, 210.0, 529.5, 210.0 ],
					"order" : 10,
					"source" : [ "obj-19", 0 ]
				}

			}
, 			{
				"patchline" : 				{
					"color" : [ 0.0, 0.0, 0.0, 0.9 ],
					"destination" : [ "obj-36", 0 ],
					"hidden" : 1,
					"midpoints" : [ 212.5, 357.0, 363.0, 357.0, 363.0, 171.0, 699.0, 171.0, 699.0, 210.0, 744.0, 210.0 ],
					"order" : 3,
					"source" : [ "obj-19", 0 ]
				}

			}
, 			{
				"patchline" : 				{
					"color" : [ 0.0, 0.0, 0.0, 0.9 ],
					"destination" : [ "obj-37", 0 ],
					"hidden" : 1,
					"midpoints" : [ 212.5, 357.0, 363.0, 357.0, 363.0, 171.0, 699.0, 171.0, 699.0, 210.0, 822.5, 210.0 ],
					"order" : 0,
					"source" : [ "obj-19", 0 ]
				}

			}
, 			{
				"patchline" : 				{
					"color" : [ 0.0, 0.0, 0.0, 0.9 ],
					"destination" : [ "obj-4", 0 ],
					"hidden" : 1,
					"midpoints" : [ 212.5, 357.0, 363.0, 357.0, 363.0, 171.0, 699.0, 171.0, 699.0, 210.0, 664.0, 210.0 ],
					"order" : 6,
					"source" : [ "obj-19", 0 ]
				}

			}
, 			{
				"patchline" : 				{
					"color" : [ 0.0, 0.0, 0.0, 0.9 ],
					"destination" : [ "obj-52", 0 ],
					"hidden" : 1,
					"midpoints" : [ 212.5, 357.0, 387.0, 357.0, 387.0, 309.0, 410.0, 309.0 ],
					"order" : 13,
					"source" : [ "obj-19", 0 ]
				}

			}
, 			{
				"patchline" : 				{
					"color" : [ 0.0, 0.0, 0.0, 0.9 ],
					"destination" : [ "obj-55", 0 ],
					"hidden" : 1,
					"midpoints" : [ 212.5, 360.0, 410.0, 360.0 ],
					"order" : 12,
					"source" : [ "obj-19", 0 ]
				}

			}
, 			{
				"patchline" : 				{
					"color" : [ 0.0, 0.0, 0.0, 0.9 ],
					"destination" : [ "obj-57", 0 ],
					"hidden" : 1,
					"midpoints" : [ 212.5, 357.0, 387.0, 357.0, 387.0, 300.0, 510.0, 300.0, 510.0, 360.0, 538.5, 360.0 ],
					"order" : 8,
					"source" : [ "obj-19", 0 ]
				}

			}
, 			{
				"patchline" : 				{
					"color" : [ 0.0, 0.0, 0.0, 0.9 ],
					"destination" : [ "obj-58", 0 ],
					"hidden" : 1,
					"midpoints" : [ 212.5, 357.0, 387.0, 357.0, 387.0, 300.0, 510.0, 300.0, 510.0, 309.0, 538.5, 309.0 ],
					"order" : 9,
					"source" : [ "obj-19", 0 ]
				}

			}
, 			{
				"patchline" : 				{
					"color" : [ 0.0, 0.0, 0.0, 0.9 ],
					"destination" : [ "obj-61", 0 ],
					"hidden" : 1,
					"midpoints" : [ 212.5, 357.0, 387.0, 357.0, 387.0, 300.0, 510.0, 300.0, 510.0, 306.0, 667.0, 306.0 ],
					"order" : 5,
					"source" : [ "obj-19", 0 ]
				}

			}
, 			{
				"patchline" : 				{
					"color" : [ 0.0, 0.0, 0.0, 0.9 ],
					"destination" : [ "obj-7", 0 ],
					"hidden" : 1,
					"midpoints" : [ 212.5, 435.0, 642.0, 435.0, 642.0, 360.0, 675.5, 360.0 ],
					"order" : 4,
					"source" : [ "obj-19", 0 ]
				}

			}
, 			{
				"patchline" : 				{
					"color" : [ 0.0, 0.0, 0.0, 0.9 ],
					"destination" : [ "obj-27", 0 ],
					"hidden" : 1,
					"midpoints" : [ 424.714294, 171.0, 381.0, 171.0, 381.0, 210.0, 478.0, 210.0 ],
					"source" : [ "obj-20", 0 ]
				}

			}
, 			{
				"patchline" : 				{
					"destination" : [ "obj-18", 0 ],
					"source" : [ "obj-21", 0 ]
				}

			}
, 			{
				"patchline" : 				{
					"color" : [ 0.0, 0.0, 0.0, 0.9 ],
					"destination" : [ "obj-31", 0 ],
					"hidden" : 1,
					"midpoints" : [ 463.428558, 171.0, 381.0, 171.0, 381.0, 210.0, 529.5, 210.0 ],
					"source" : [ "obj-22", 0 ]
				}

			}
, 			{
				"patchline" : 				{
					"color" : [ 0.0, 0.0, 0.0, 0.9 ],
					"destination" : [ "obj-30", 0 ],
					"midpoints" : [ 502.142853, 171.0, 699.0, 171.0, 699.0, 210.0, 619.5, 210.0 ],
					"source" : [ "obj-23", 0 ]
				}

			}
, 			{
				"patchline" : 				{
					"color" : [ 0.0, 0.0, 0.0, 0.9 ],
					"destination" : [ "obj-4", 0 ],
					"hidden" : 1,
					"midpoints" : [ 540.857117, 171.0, 699.0, 171.0, 699.0, 210.0, 664.0, 210.0 ],
					"source" : [ "obj-24", 0 ]
				}

			}
, 			{
				"patchline" : 				{
					"color" : [ 0.0, 0.0, 0.0, 0.9 ],
					"destination" : [ "obj-102", 9 ],
					"hidden" : 1,
					"midpoints" : [ 789.5, 435.0, 665.071429, 435.0 ],
					"source" : [ "obj-25", 0 ]
				}

			}
, 			{
				"patchline" : 				{
					"color" : [ 0.0, 0.0, 0.0, 0.9 ],
					"destination" : [ "obj-36", 0 ],
					"midpoints" : [ 579.571411, 171.0, 699.0, 171.0, 699.0, 210.0, 744.0, 210.0 ],
					"source" : [ "obj-26", 0 ]
				}

			}
, 			{
				"patchline" : 				{
					"color" : [ 0.0, 0.0, 0.0, 0.9 ],
					"destination" : [ "obj-102", 0 ],
					"hidden" : 1,
					"midpoints" : [ 478.0, 285.0, 374.0, 285.0, 374.0, 444.0, 541.0, 444.0 ],
					"source" : [ "obj-27", 0 ]
				}

			}
, 			{
				"patchline" : 				{
					"color" : [ 0.0, 0.0, 0.0, 0.9 ],
					"destination" : [ "obj-37", 0 ],
					"hidden" : 1,
					"midpoints" : [ 618.285706, 171.0, 699.0, 171.0, 699.0, 210.0, 822.5, 210.0 ],
					"source" : [ "obj-28", 0 ]
				}

			}
, 			{
				"patchline" : 				{
					"color" : [ 0.0, 0.0, 0.0, 0.9 ],
					"destination" : [ "obj-102", 7 ],
					"hidden" : 1,
					"midpoints" : [ 386.0, 285.0, 374.0, 285.0, 374.0, 444.0, 637.5, 444.0 ],
					"source" : [ "obj-29", 0 ]
				}

			}
, 			{
				"patchline" : 				{
					"destination" : [ "obj-9", 0 ],
					"source" : [ "obj-3", 0 ]
				}

			}
, 			{
				"patchline" : 				{
					"color" : [ 0.0, 0.0, 0.0, 0.9 ],
					"destination" : [ "obj-102", 2 ],
					"hidden" : 1,
					"midpoints" : [ 619.5, 276.0, 701.0, 276.0, 701.0, 288.0, 842.0, 288.0, 842.0, 435.0, 568.571429, 435.0 ],
					"source" : [ "obj-30", 0 ]
				}

			}
, 			{
				"patchline" : 				{
					"color" : [ 0.0, 0.0, 0.0, 0.9 ],
					"destination" : [ "obj-102", 3 ],
					"hidden" : 1,
					"midpoints" : [ 529.5, 276.0, 509.0, 276.0, 509.0, 285.0, 374.0, 285.0, 374.0, 444.0, 582.357143, 444.0 ],
					"source" : [ "obj-31", 0 ]
				}

			}
, 			{
				"patchline" : 				{
					"color" : [ 0.0, 0.0, 0.0, 0.9 ],
					"destination" : [ "obj-7", 0 ],
					"hidden" : 1,
					"midpoints" : [ 850.571411, 210.25, 675.5, 210.25 ],
					"source" : [ "obj-32", 0 ]
				}

			}
, 			{
				"patchline" : 				{
					"color" : [ 0.0, 0.0, 0.0, 0.9 ],
					"destination" : [ "obj-61", 0 ],
					"hidden" : 1,
					"midpoints" : [ 811.857117, 171.0, 909.0, 171.0, 909.0, 300.0, 729.0, 300.0, 729.0, 309.0, 667.0, 309.0 ],
					"source" : [ "obj-33", 0 ]
				}

			}
, 			{
				"patchline" : 				{
					"color" : [ 0.0, 0.0, 0.0, 0.9 ],
					"destination" : [ "obj-57", 0 ],
					"hidden" : 1,
					"midpoints" : [ 773.142883, 171.0, 363.0, 171.0, 363.0, 300.0, 510.0, 300.0, 510.0, 360.0, 538.5, 360.0 ],
					"source" : [ "obj-34", 0 ]
				}

			}
, 			{
				"patchline" : 				{
					"color" : [ 0.0, 0.0, 0.0, 0.9 ],
					"destination" : [ "obj-55", 0 ],
					"hidden" : 1,
					"midpoints" : [ 695.714294, 171.0, 363.0, 171.0, 363.0, 360.0, 410.0, 360.0 ],
					"source" : [ "obj-35", 0 ]
				}

			}
, 			{
				"patchline" : 				{
					"color" : [ 0.0, 0.0, 0.0, 0.9 ],
					"destination" : [ "obj-102", 4 ],
					"hidden" : 1,
					"midpoints" : [ 744.0, 288.0, 842.0, 288.0, 842.0, 435.0, 596.142857, 435.0 ],
					"source" : [ "obj-36", 0 ]
				}

			}
, 			{
				"patchline" : 				{
					"color" : [ 0.0, 0.0, 0.0, 0.9 ],
					"destination" : [ "obj-102", 6 ],
					"hidden" : 1,
					"midpoints" : [ 822.5, 288.0, 842.0, 288.0, 842.0, 435.0, 623.714286, 435.0 ],
					"source" : [ "obj-37", 0 ]
				}

			}
, 			{
				"patchline" : 				{
					"color" : [ 0.0, 0.0, 0.0, 0.9 ],
					"destination" : [ "obj-58", 0 ],
					"hidden" : 1,
					"midpoints" : [ 734.428589, 171.0, 363.0, 171.0, 363.0, 300.0, 510.0, 300.0, 510.0, 309.0, 538.5, 309.0 ],
					"source" : [ "obj-38", 0 ]
				}

			}
, 			{
				"patchline" : 				{
					"destination" : [ "obj-60", 0 ],
					"source" : [ "obj-387", 1 ]
				}

			}
, 			{
				"patchline" : 				{
					"destination" : [ "obj-68", 0 ],
					"source" : [ "obj-387", 0 ]
				}

			}
, 			{
				"patchline" : 				{
					"color" : [ 0.0, 0.0, 0.0, 0.9 ],
					"destination" : [ "obj-52", 0 ],
					"hidden" : 1,
					"midpoints" : [ 657.0, 171.0, 363.0, 171.0, 363.0, 300.0, 410.0, 300.0 ],
					"source" : [ "obj-39", 0 ]
				}

			}
, 			{
				"patchline" : 				{
					"color" : [ 0.0, 0.0, 0.0, 0.9 ],
					"destination" : [ "obj-102", 14 ],
					"hidden" : 1,
					"midpoints" : [ 664.0, 270.0, 842.0, 270.0, 842.0, 435.0, 734.0, 435.0 ],
					"source" : [ "obj-4", 0 ]
				}

			}
, 			{
				"patchline" : 				{
					"color" : [ 0.0, 0.0, 0.0, 0.9 ],
					"destination" : [ "obj-25", 0 ],
					"hidden" : 1,
					"midpoints" : [ 928.0, 300.0, 765.0, 300.0, 765.0, 360.0, 789.5, 360.0 ],
					"source" : [ "obj-40", 0 ]
				}

			}
, 			{
				"patchline" : 				{
					"color" : [ 0.0, 0.0, 0.0, 0.9 ],
					"destination" : [ "obj-13", 0 ],
					"hidden" : 1,
					"midpoints" : [ 889.285706, 171.0, 909.0, 171.0, 909.0, 300.0, 789.5, 300.0 ],
					"source" : [ "obj-41", 0 ]
				}

			}
, 			{
				"patchline" : 				{
					"destination" : [ "obj-5", 0 ],
					"source" : [ "obj-43", 0 ]
				}

			}
, 			{
				"patchline" : 				{
					"destination" : [ "obj-11", 0 ],
					"order" : 1,
					"source" : [ "obj-48", 0 ]
				}

			}
, 			{
				"patchline" : 				{
					"destination" : [ "obj-49", 0 ],
					"order" : 0,
					"source" : [ "obj-48", 0 ]
				}

			}
, 			{
				"patchline" : 				{
					"destination" : [ "obj-2", 0 ],
					"midpoints" : [ 188.0, 93.0, 131.5, 93.0 ],
					"source" : [ "obj-49", 0 ]
				}

			}
, 			{
				"patchline" : 				{
					"destination" : [ "obj-2", 0 ],
					"midpoints" : [ 131.5, 97.0, 131.5, 97.0 ],
					"source" : [ "obj-5", 0 ]
				}

			}
, 			{
				"patchline" : 				{
					"destination" : [ "obj-14", 0 ],
					"source" : [ "obj-50", 0 ]
				}

			}
, 			{
				"patchline" : 				{
					"destination" : [ "obj-1", 0 ],
					"midpoints" : [ 680.599976, 709.0, 709.0, 709.0 ],
					"source" : [ "obj-51", 0 ]
				}

			}
, 			{
				"patchline" : 				{
					"color" : [ 0.0, 0.0, 0.0, 0.9 ],
					"destination" : [ "obj-102", 1 ],
					"hidden" : 1,
					"midpoints" : [ 410.0, 363.0, 386.0, 363.0, 386.0, 444.0, 554.785714, 444.0 ],
					"source" : [ "obj-52", 0 ]
				}

			}
, 			{
				"patchline" : 				{
					"destination" : [ "obj-14", 0 ],
					"order" : 1,
					"source" : [ "obj-53", 0 ]
				}

			}
, 			{
				"patchline" : 				{
					"destination" : [ "obj-73", 0 ],
					"order" : 0,
					"source" : [ "obj-53", 0 ]
				}

			}
, 			{
				"patchline" : 				{
					"destination" : [ "obj-16", 0 ],
					"source" : [ "obj-54", 3 ]
				}

			}
, 			{
				"patchline" : 				{
					"destination" : [ "obj-51", 0 ],
					"source" : [ "obj-54", 2 ]
				}

			}
, 			{
				"patchline" : 				{
					"color" : [ 0.0, 0.0, 0.0, 0.9 ],
					"destination" : [ "obj-102", 5 ],
					"hidden" : 1,
					"midpoints" : [ 410.0, 444.0, 609.928571, 444.0 ],
					"source" : [ "obj-55", 0 ]
				}

			}
, 			{
				"patchline" : 				{
					"color" : [ 0.0, 0.0, 0.0, 0.9 ],
					"destination" : [ "obj-102", 13 ],
					"hidden" : 1,
					"midpoints" : [ 538.5, 444.0, 720.214286, 444.0 ],
					"source" : [ "obj-57", 0 ]
				}

			}
, 			{
				"patchline" : 				{
					"color" : [ 0.0, 0.0, 0.0, 0.9 ],
					"destination" : [ "obj-102", 11 ],
					"hidden" : 1,
					"midpoints" : [ 538.5, 363.0, 515.0, 363.0, 515.0, 444.0, 692.642857, 444.0 ],
					"source" : [ "obj-58", 0 ]
				}

			}
, 			{
				"patchline" : 				{
					"color" : [ 0.0, 0.0, 0.0, 0.9 ],
					"destination" : [ "obj-102", 10 ],
					"hidden" : 1,
					"midpoints" : [ 667.0, 363.0, 644.0, 363.0, 644.0, 444.0, 678.857143, 444.0 ],
					"source" : [ "obj-61", 0 ]
				}

			}
, 			{
				"patchline" : 				{
					"destination" : [ "obj-74", 0 ],
					"source" : [ "obj-63", 0 ]
				}

			}
, 			{
				"patchline" : 				{
					"destination" : [ "obj-64", 0 ],
					"source" : [ "obj-65", 0 ]
				}

			}
, 			{
				"patchline" : 				{
					"destination" : [ "obj-65", 0 ],
					"source" : [ "obj-66", 0 ]
				}

			}
, 			{
				"patchline" : 				{
					"destination" : [ "obj-2", 0 ],
					"midpoints" : [ 24.5, 93.0, 131.5, 93.0 ],
					"source" : [ "obj-69", 0 ]
				}

			}
, 			{
				"patchline" : 				{
					"color" : [ 0.0, 0.0, 0.0, 0.9 ],
					"destination" : [ "obj-102", 12 ],
					"hidden" : 1,
					"midpoints" : [ 675.5, 444.0, 706.428571, 444.0 ],
					"source" : [ "obj-7", 0 ]
				}

			}
, 			{
				"patchline" : 				{
					"destination" : [ "obj-54", 0 ],
					"source" : [ "obj-73", 0 ]
				}

			}
, 			{
				"patchline" : 				{
					"destination" : [ "obj-2", 0 ],
					"midpoints" : [ 276.5, 94.5, 131.5, 94.5 ],
					"source" : [ "obj-74", 0 ]
				}

			}
, 			{
				"patchline" : 				{
					"destination" : [ "obj-15", 0 ],
					"source" : [ "obj-77", 0 ]
				}

			}
, 			{
				"patchline" : 				{
					"destination" : [ "obj-3", 0 ],
					"source" : [ "obj-78", 0 ]
				}

			}
, 			{
				"patchline" : 				{
					"destination" : [ "obj-21", 0 ],
					"order" : 0,
					"source" : [ "obj-8", 0 ]
				}

			}
, 			{
				"patchline" : 				{
					"destination" : [ "obj-66", 0 ],
					"order" : 1,
					"source" : [ "obj-8", 0 ]
				}

			}
, 			{
				"patchline" : 				{
					"destination" : [ "obj-67", 0 ],
					"source" : [ "obj-83", 0 ]
				}

			}
, 			{
				"patchline" : 				{
					"destination" : [ "obj-94", 0 ],
					"source" : [ "obj-84", 0 ]
				}

			}
, 			{
				"patchline" : 				{
					"destination" : [ "obj-94", 0 ],
					"midpoints" : [ 1159.5, 246.5, 1059.5, 246.5 ],
					"source" : [ "obj-85", 0 ]
				}

			}
, 			{
				"patchline" : 				{
					"destination" : [ "obj-128", 0 ],
					"order" : 1,
					"source" : [ "obj-86", 2 ]
				}

			}
, 			{
				"patchline" : 				{
					"destination" : [ "obj-83", 0 ],
					"source" : [ "obj-86", 0 ]
				}

			}
, 			{
				"patchline" : 				{
					"destination" : [ "obj-84", 0 ],
					"midpoints" : [ 1009.0, 194.0, 1059.5, 194.0 ],
					"source" : [ "obj-86", 1 ]
				}

			}
, 			{
				"patchline" : 				{
					"destination" : [ "obj-85", 0 ],
					"midpoints" : [ 1065.5, 194.5, 1159.5, 194.5 ],
					"order" : 0,
					"source" : [ "obj-86", 2 ]
				}

			}
, 			{
				"patchline" : 				{
					"destination" : [ "obj-86", 0 ],
					"source" : [ "obj-87", 0 ]
				}

			}
, 			{
				"patchline" : 				{
					"destination" : [ "obj-59", 0 ],
					"source" : [ "obj-88", 0 ]
				}

			}
, 			{
				"patchline" : 				{
					"destination" : [ "obj-15", 1 ],
					"source" : [ "obj-9", 1 ]
				}

			}
, 			{
				"patchline" : 				{
					"destination" : [ "obj-15", 0 ],
					"source" : [ "obj-9", 0 ]
				}

			}
, 			{
				"patchline" : 				{
					"destination" : [ "obj-88", 0 ],
					"source" : [ "obj-90", 0 ]
				}

			}
, 			{
				"patchline" : 				{
					"destination" : [ "obj-90", 1 ],
					"source" : [ "obj-93", 1 ]
				}

			}
, 			{
				"patchline" : 				{
					"destination" : [ "obj-90", 0 ],
					"source" : [ "obj-93", 0 ]
				}

			}
, 			{
				"patchline" : 				{
					"destination" : [ "obj-93", 0 ],
					"midpoints" : [ 1196.5, 284.0, 1057.5, 284.0 ],
					"source" : [ "obj-94", 1 ]
				}

			}
 ]
	}

}
